<svg data-name="Group 23194" xmlns="http://www.w3.org/2000/svg" width="48" height="48" viewBox="0 0 48 48">
    <defs>
        <clipPath id="livd1qgjpa">
            <path data-name="Rectangle 3939" style="fill:none" d="M0 0h48v48H0z"/>
        </clipPath>
    </defs>
    <g data-name="Group 23193" style="clip-path:url(#livd1qgjpa)">
        <path data-name="Path 14270" d="M24 0a24 24 0 1 0 24 24A24 24 0 0 0 24 0m0 1.5A22.5 22.5 0 1 1 1.5 24 22.523 22.523 0 0 1 24 1.5"/>
        <path data-name="Path 14271" d="M33.628 16.565a2.424 2.424 0 0 0-2.419 2.288 2.263 2.263 0 0 0 .317 4.5h7.114a2.264 2.264 0 0 0 .043-4.527 2.414 2.414 0 0 0-3.006-1.135 2.422 2.422 0 0 0-2.049-1.13m0 1.5a.916.916 0 0 1 .779.432 1.5 1.5 0 0 0 1.805.6.914.914 0 0 1 1.144.434 1.5 1.5 0 0 0 1.3.8.762.762 0 0 1-.016 1.523h-7.114a.761.761 0 0 1-.108-1.514 1.5 1.5 0 0 0 1.291-1.4.92.92 0 0 1 .919-.871"/>
        <path data-name="Rectangle 3937" d="M11.197 24.644h1.557v1.465h-1.557z"/>
        <path data-name="Rectangle 3938" d="M8.809 22.831h6.725v1.465H8.809z"/>
        <path data-name="Path 14272" d="M8.981 26.545h5.99V15.316h-5.99zm6.241 1.5H8.731A1.252 1.252 0 0 1 7.479 26.8V15.065a1.253 1.253 0 0 1 1.252-1.252h6.491a1.254 1.254 0 0 1 1.252 1.252V26.8a1.253 1.253 0 0 1-1.252 1.252"/>
        <path data-name="Path 14273" d="M29.965 9.3h-12v7.5h12zm-1.5 6h-8.997v-4.5h8.995z"/>
        <path data-name="Path 14274" d="M29.967 9.3h-12l6 5.969zm-3.641 1.5-2.361 2.347-2.359-2.347z"/>
        <path data-name="Path 14275" d="M24 27.186a8.137 8.137 0 0 1-5.793-2.4l1.064-1.061a6.687 6.687 0 0 0 9.458 0l1.064 1.061a8.137 8.137 0 0 1-5.793 2.4" style="fill:#2bbaed"/>
        <path data-name="Path 14276" d="M24 24.287a6.409 6.409 0 0 1-4.555-1.887l1.064-1.063a4.935 4.935 0 0 0 6.982 0l1.064 1.063A6.409 6.409 0 0 1 24 24.287" style="fill:#2bbaed"/>
        <path data-name="Path 14277" d="M24 21.273a4.654 4.654 0 0 1-3.3-1.362l1.061-1.063a3.165 3.165 0 0 0 4.47 0l1.069 1.063a4.654 4.654 0 0 1-3.3 1.362" style="fill:#2bbaed"/>
        <path data-name="Path 14278" d="M33.01 36.315H28.5v-1.5h3.007v-4.481h-1.692l-1.47-.772h-8.661l-1.5.772h-1.617v4.479H19.5v1.5h-4.435v-7.479h2.753l1.5-.774h9.4l1.47.774h2.822z" style="fill:#2bbaed"/>
        <path data-name="Path 14279" d="M27.974 31.835h-7.947L18 39.274h12zm-1.148 1.5 1.208 4.435h-8.069l1.211-4.435z"/>
    </g>
</svg>
