<svg xmlns="http://www.w3.org/2000/svg" width="64" height="64" viewBox="0 0 64 64">
    <defs>
        <clipPath id="clip-path">
            <circle id="Ellipse_21" data-name="Ellipse 21" class="cls-1" cx="2.602" cy="2.602" r="2.602" transform="translate(-323.188 -149.464)"/>
        </clipPath>
        <style>
            .cls-1{fill:#fff}.cls-2{fill:none;stroke:#fff;stroke-linecap:round;stroke-linejoin:round;stroke-width:4px}
        </style>
    </defs>
    <g id="Group_23178" data-name="Group 23178" transform="translate(356.209 172.637)">
        <g id="Group_23174" data-name="Group 23174">
            <path id="Path_14437" data-name="Path 14437" class="cls-2" d="m-309.466-123 9.743-9.743 4.741 4.741-16.593 16.592h-4.741v-4.741"/>
            <path id="Line_16" data-name="Line 16" class="cls-2" transform="translate(-304.464 -111.411)" d="M9.481 0H0"/>
        </g>
        <g id="Group_23177" data-name="Group 23177">
            <path id="Path_14438" data-name="Path 14438" class="cls-2" d="M-309.83-135.3v-26.85a7.71 7.71 0 0 0-7.71-7.71h-25.06l-10.923 10.922v35.981a7.71 7.71 0 0 0 7.71 7.71h20.536"/>
            <path id="Path_14439" data-name="Path 14439" class="cls-2" d="M-339-168v6.827a6.809 6.809 0 0 1-6.827 6.826h-6.826"/>
            <path id="Line_17" data-name="Line 17" class="cls-2" transform="translate(-342.598 -138.077)" d="M21.845 0H0"/>
            <path id="Line_18" data-name="Line 18" class="cls-2" transform="translate(-342.598 -129.543)" d="M21.845 0H0"/>
            <path id="Line_19" data-name="Line 19" class="cls-2" transform="translate(-342.598 -146.866)" d="M12.079 0H0"/>
            <g id="Group_23176" data-name="Group 23176">
                <circle id="Ellipse_20" data-name="Ellipse 20" class="cls-1" cx="2.602" cy="2.602" r="2.602" transform="translate(-323.188 -149.464)"/>
                <g id="Group_23175" data-name="Group 23175" style="clip-path:url(#clip-path)">
                    <path id="Rectangle_5321" data-name="Rectangle 5321" class="cls-1" transform="rotate(-89 -235.07 95.88)" d="M0 0h12.284v12.284H0z"/>
                </g>
            </g>
        </g>
        <path id="Rectangle_5322" data-name="Rectangle 5322" transform="translate(-356.209 -172.637)" style="fill:none" d="M0 0h64v64H0z"/>
    </g>
</svg>
