<svg data-name="Group 23192" xmlns="http://www.w3.org/2000/svg" width="48" height="48" viewBox="0 0 48 48">
    <defs>
        <clipPath id="u806mmlt1a">
            <path data-name="Rectangle 3936" style="fill:none" d="M0 0h48v48H0z"/>
        </clipPath>
    </defs>
    <g data-name="Group 23191" style="clip-path:url(#u806mmlt1a)">
        <path data-name="Path 14260" d="M34.644 16.282a15.072 15.072 0 0 0-21.288 0L12.3 15.221a16.569 16.569 0 0 1 23.41 0z"/>
        <path data-name="Path 14261" d="M32.466 18.459a11.976 11.976 0 0 0-16.933 0L14.472 17.4a13.47 13.47 0 0 1 19.057 0z"/>
        <path data-name="Path 14262" d="M30.348 20.577a8.991 8.991 0 0 0-12.7 0l-1.058-1.061a10.49 10.49 0 0 1 14.819 0z"/>
        <path data-name="Path 14263" d="m19.8 22.728-1.061-1.061a7.432 7.432 0 0 1 10.517 0L28.2 22.728a5.94 5.94 0 0 0-8.4 0"/>
        <path data-name="Path 14264" d="M24 25.383a1.542 1.542 0 1 0 1.09.452 1.532 1.532 0 0 0-1.09-.452m0 4.585a3.043 3.043 0 1 1 2.151-.892 3.017 3.017 0 0 1-2.151.892" style="fill:#2bbaed"/>
        <path data-name="Path 14265" d="M14.564 32.29v2.925h.667a.781.781 0 0 0 .654-.278c.165-.2.185-.474.185-1.183s-.02-.99-.185-1.186a.778.778 0 0 0-.654-.278zm.743-.781a1.554 1.554 0 0 1 1.355.656 2.588 2.588 0 0 1 .282 1.589 2.586 2.586 0 0 1-.282 1.586 1.554 1.554 0 0 1-1.355.66h-1.619v-4.491z"/>
        <path data-name="Rectangle 3935" d="M17.84 31.51h.876v4.487h-.876z"/>
        <path data-name="Path 14266" d="M20.647 32.29v1.179h.83a.591.591 0 1 0 0-1.179zm.881-.781a1.352 1.352 0 0 1 1.455 1.373 1.2 1.2 0 0 1-.819 1.178l1 1.936h-1.013l-.874-1.791h-.63V36h-.876v-4.491z"/>
        <path data-name="Path 14267" d="M26.847 32.291h-2.08v1.052h1.777v.781h-1.777v1.09h2.08V36h-2.954v-4.49h2.954z"/>
        <path data-name="Path 14268" d="M30.855 32.889h-.888a.743.743 0 0 0-.756-.636.722.722 0 0 0-.56.233c-.165.189-.223.41-.223 1.266s.058 1.077.223 1.266a.712.712 0 0 0 .56.233.743.743 0 0 0 .756-.636h.888a1.576 1.576 0 0 1-1.644 1.419 1.621 1.621 0 0 1-1.2-.473c-.447-.447-.454-.952-.454-1.809s.007-1.361.454-1.808a1.617 1.617 0 0 1 1.2-.472 1.574 1.574 0 0 1 1.644 1.417"/>
        <path data-name="Path 14269" d="M34.417 32.291h-1.172V36h-.875v-3.709H31.2v-.781h3.219z"/>
    </g>
</svg>
