<svg data-name="Group 23208" xmlns="http://www.w3.org/2000/svg" width="48" height="48" viewBox="0 0 48 48">
    <defs>
        <clipPath id="hk855uciga">
            <path data-name="Rectangle 3973" style="fill:none" d="M0 0h48v48H0z"/>
        </clipPath>
    </defs>
    <g data-name="Group 23207" style="clip-path:url(#hk855uciga)">
        <path data-name="Path 14339" d="M17.691 27.048h2.177v.835h-3.113v-4.8h.936z"/>
        <path data-name="Path 14340" d="M20.818 25.423a.865.865 0 0 0-.074.376h1.328a.851.851 0 0 0-.072-.376.661.661 0 0 0-1.181 0m2.124.607v.37h-2.2a.718.718 0 0 0 .768.782.97.97 0 0 0 .789-.33l.54.519a1.656 1.656 0 0 1-1.334.552c-.837 0-1.626-.376-1.626-1.8 0-1.147.621-1.8 1.532-1.8a1.511 1.511 0 0 1 1.529 1.7"/>
        <path data-name="Path 14341" d="M23.973 26.031c0 .463.055.915.581.915s.572-.452.572-.915-.053-.911-.572-.911-.581.452-.581.911m1.181-1.331v-.33H26v3.384a1.424 1.424 0 0 1-1.545 1.457 1.646 1.646 0 0 1-1.276-.459l.554-.553a.886.886 0 0 0 .687.27.656.656 0 0 0 .7-.729v-.358a1.017 1.017 0 0 1-.835.351 1.153 1.153 0 0 1-.83-.309 1.822 1.822 0 0 1-.364-1.4 1.814 1.814 0 0 1 .364-1.389 1.16 1.16 0 0 1 .837-.311 1.029 1.029 0 0 1 .856.371"/>
        <path data-name="Path 14342" d="M27.592 26.4c-.351 0-.519.141-.519.4 0 .242.168.4.533.4a.659.659 0 0 0 .518-.171c.1-.087.134-.221.134-.445V26.4zm1.545-.83v2.313h-.858v-.3a1.061 1.061 0 0 1-.863.337 1.216 1.216 0 0 1-.9-.309 1.128 1.128 0 0 1-.288-.789c0-.561.383-1.02 1.213-1.02h.814v-.175c0-.383-.187-.551-.652-.551a.785.785 0 0 0-.676.3l-.551-.547a1.471 1.471 0 0 1 1.259-.5c.994 0 1.5.418 1.5 1.241"/>
        <path data-name="Path 14343" d="M30.418 26.826c0 .208.088.316.311.316h.335v.743h-.5a.951.951 0 0 1-1.024-1.006v-3.8h.876z"/>
        <path data-name="Path 14344" d="M32.076 17.385h-1.5V14.4H27.59v-1.5h4.486z" style="fill:#2bbaed"/>
        <path data-name="Rectangle 3971" transform="rotate(-44.68 34.527 -23.216)" style="fill:#2bbaed" d="M0 0h6.326v1.502H0z"/>
        <path data-name="Path 14345" d="M34.333 10.474H13.449v27.051h20.884zm-1.5 25.55H14.95V11.976h17.879z"/>
        <path data-name="Rectangle 3972" transform="translate(11.998 29.981)" style="fill:#2bbaed" d="M0 0h24.005v1.504H0z"/>
    </g>
</svg>
