<svg data-name="Group 23198" xmlns="http://www.w3.org/2000/svg" width="48" height="48" viewBox="0 0 48 48">
    <defs>
        <clipPath id="chqntp3t5a">
            <path data-name="Rectangle 3950" style="fill:none" d="M0 0h48v48H0z"/>
        </clipPath>
    </defs>
    <g data-name="Group 23197" style="clip-path:url(#chqntp3t5a)">
        <path data-name="Path 14311" d="M34.47 10.492H13.529v27.017H24l10.47-9zm-1.5 1.5v15.827l-9.527 8.187h-8.411V11.994z"/>
        <path data-name="Rectangle 3941" d="M17.999 25.5h3v1.495h-3z"/>
        <path data-name="Rectangle 3942" d="M17.999 28.495h3v1.493h-3z"/>
        <path data-name="Rectangle 3943" d="M25.501 29.992h4.5v1.493h-4.5z"/>
        <path data-name="Rectangle 3944" d="M25.501 32.979h1.493v1.493h-1.493z"/>
        <path data-name="Rectangle 3945" d="M17.999 31.486h3v1.493h-3z"/>
        <path data-name="Rectangle 3946" d="M17.999 22.509h12v1.493h-12z"/>
        <path data-name="Rectangle 3947" d="M17.999 19.509h12v1.493h-12z"/>
        <path data-name="Rectangle 3948" d="M17.999 16.504h10.502v1.493H17.999z"/>
        <path data-name="Rectangle 3949" d="M17.999 13.502h12v1.493h-12z"/>
        <path data-name="Path 14312" d="M34.471 27.008H22.5v10.5H24l10.473-9zm-2.308 1.5L24 35.524V28.51z" style="fill:#2bbaed"/>
    </g>
</svg>
