<svg data-name="Group 23196" xmlns="http://www.w3.org/2000/svg" width="48" height="48" viewBox="0 0 48 48">
    <defs>
        <clipPath id="3i48ohta5a">
            <path data-name="Rectangle 3940" style="fill:none" d="M0 0h48v48H0z"/>
        </clipPath>
    </defs>
    <g data-name="Group 23195" style="clip-path:url(#3i48ohta5a)">
        <path data-name="Path 14281" d="M16.887 31.5H7.274a1.432 1.432 0 0 1-1.431-1.43V15.238a1.43 1.43 0 0 1 1.431-1.426h9.613a1.43 1.43 0 0 1 1.429 1.426v14.831a1.432 1.432 0 0 1-1.429 1.43M7.274 14.6a.64.64 0 0 0-.642.642v14.827a.642.642 0 0 0 .642.642h9.613a.643.643 0 0 0 .642-.642V15.238a.641.641 0 0 0-.642-.642z"/>
        <path data-name="Path 14282" d="M15.469 27.93H8.691A1.09 1.09 0 0 1 7.6 26.844V16.7a1.088 1.088 0 0 1 1.089-1.086h6.778a1.087 1.087 0 0 1 1.091 1.086v10.144a1.088 1.088 0 0 1-1.089 1.086m-6.778-11.6a.371.371 0 0 0-.37.37v10.144a.371.371 0 0 0 .37.37h6.778a.371.371 0 0 0 .368-.37V16.7a.371.371 0 0 0-.368-.37z"/>
        <path data-name="Path 14283" d="M13.437 29.93h-2.363a.545.545 0 1 1 0-1.089h2.363a.545.545 0 0 1 0 1.089"/>
        <path data-name="Path 14284" d="M42.664 25.458h-13.27a1.428 1.428 0 0 1-1.426-1.428v-3.873a1.428 1.428 0 0 1 1.426-1.428h13.27a1.428 1.428 0 0 1 1.426 1.428v3.873a1.428 1.428 0 0 1-1.426 1.428m-13.27-5.941a.643.643 0 0 0-.642.64v3.873a.647.647 0 0 0 .642.646h13.27a.647.647 0 0 0 .642-.646v-3.873a.643.643 0 0 0-.642-.64z"/>
        <path data-name="Path 14285" d="M41.351 19.12h-.786V17.8a.641.641 0 0 0-.645-.642h-7.787a.637.637 0 0 0-.637.642v1.32H30.7V17.8a1.432 1.432 0 0 1 1.428-1.43h7.792a1.432 1.432 0 0 1 1.431 1.43z"/>
        <path data-name="Path 14286" d="M39.922 30.1h-7.789a1.43 1.43 0 0 1-1.427-1.43v-3.505h.794v3.508a.64.64 0 0 0 .638.644h7.789a.643.643 0 0 0 .643-.644v-3.508h.786v3.508a1.43 1.43 0 0 1-1.429 1.43"/>
        <path data-name="Path 14287" d="M38.713 27.072h-5.369a.479.479 0 0 1 0-.958h5.369a.479.479 0 1 1 0 .958"/>
        <path data-name="Path 14288" d="M38.713 28.672h-5.369a.477.477 0 0 1 0-.954h5.369a.477.477 0 1 1 0 .954"/>
        <path data-name="Path 14289" d="m13.746 33.865-.421.414a.879.879 0 0 0-.7-.235c-.353 0-.525.2-.525.428a.318.318 0 0 0 .1.242.532.532 0 0 0 .31.128l.4.06a1.1 1.1 0 0 1 .649.268.921.921 0 0 1 .263.712c0 .653-.544 1.025-1.261 1.025a1.6 1.6 0 0 1-1.239-.448l.43-.426a1.108 1.108 0 0 0 .816.286c.4 0 .6-.154.6-.423a.371.371 0 0 0-.1-.279.5.5 0 0 0-.3-.114l-.407-.063a1.179 1.179 0 0 1-.659-.279.892.892 0 0 1-.242-.666 1.044 1.044 0 0 1 1.182-1.025 1.465 1.465 0 0 1 1.1.4" style="fill:#000101"/>
        <path data-name="Path 14290" d="M17.646 34.6a.922.922 0 0 1 .267.7v1.58h-.621v-1.5a.413.413 0 1 0-.823-.014v1.51h-.621v-1.5a.4.4 0 0 0-.409-.451.4.4 0 0 0-.417.451v1.5H14.4v-2.47h.607v.228a.869.869 0 0 1 .626-.256.774.774 0 0 1 .658.312.944.944 0 0 1 .738-.312.883.883 0 0 1 .616.219" style="fill:#000101"/>
        <path data-name="Path 14291" d="M19.357 35.835c-.247 0-.368.1-.368.283s.121.281.379.281a.466.466 0 0 0 .366-.118.383.383 0 0 0 .1-.314v-.132zm1.093-.585v1.628h-.605v-.213a.763.763 0 0 1-.612.238.869.869 0 0 1-.635-.219.792.792 0 0 1-.2-.556c0-.394.272-.715.858-.715h.577v-.125c0-.271-.133-.387-.461-.387a.55.55 0 0 0-.479.213l-.391-.385a1.052 1.052 0 0 1 .894-.351c.7 0 1.058.294 1.058.872" style="fill:#000101"/>
        <path data-name="Path 14292" d="m22.928 34.609-.463.47a.418.418 0 0 0-.735.309v1.491h-.619v-2.472h.6v.235a.853.853 0 0 1 .626-.266.737.737 0 0 1 .586.233" style="fill:#000101"/>
        <path data-name="Path 14293" d="M23.952 34.477h.44v.471h-.44v1.186a.194.194 0 0 0 .214.223h.226v.521h-.34a.673.673 0 0 1-.721-.707v-1.223h-.261v-.471h.261v-.729h.621z" style="fill:#000101"/>
        <path data-name="Path 14294" d="M26.765 34.089v.93h.621a.466.466 0 1 0 0-.93zm.654-.589a1.056 1.056 0 1 1 0 2.107h-.654v1.273H26.1V33.5z" style="fill:#000101"/>
        <path data-name="Path 14295" d="M29.829 35.835c-.247 0-.368.1-.368.283s.121.281.377.281a.468.468 0 0 0 .368-.118.383.383 0 0 0 .1-.314v-.132zm1.093-.585v1.628h-.605v-.213a.763.763 0 0 1-.612.238.869.869 0 0 1-.635-.219.792.792 0 0 1-.2-.556c0-.394.272-.715.858-.715h.572v-.125c0-.271-.133-.387-.463-.387a.548.548 0 0 0-.477.213l-.391-.385a1.052 1.052 0 0 1 .894-.351c.7 0 1.058.294 1.058.872" style="fill:#000101"/>
        <path data-name="Path 14296" d="M33.4 34.6a.916.916 0 0 1 .254.7v1.58h-.622v-1.5a.4.4 0 0 0-.409-.451.4.4 0 0 0-.416.451v1.5h-.619v-2.474h.6v.228a.857.857 0 0 1 .621-.256.784.784 0 0 1 .586.219" style="fill:#000101"/>
        <path data-name="Path 14297" d="M34.849 35.147a.629.629 0 0 0-.053.266h.94a.614.614 0 0 0-.052-.266.468.468 0 0 0-.835 0m1.5.426v.261H34.8a.508.508 0 0 0 .544.551.688.688 0 0 0 .558-.233l.382.365a1.174 1.174 0 0 1-.945.389c-.59 0-1.149-.265-1.149-1.265 0-.808.44-1.264 1.082-1.264a1.066 1.066 0 0 1 1.084 1.2" style="fill:#000101"/>
        <path data-name="Path 14298" d="M37.514 36.133c0 .147.063.223.219.223h.239v.524h-.353a.674.674 0 0 1-.726-.71V33.5h.621z" style="fill:#000101"/>
        <path data-name="Path 14299" d="M7.274 14.766a.466.466 0 0 0-.469.472v14.831a.471.471 0 0 0 .469.47h9.614a.472.472 0 0 0 .47-.47V15.238a.472.472 0 0 0-.47-.472zm9.614 16.117H7.274a.815.815 0 0 1-.811-.814V15.238a.813.813 0 0 1 .811-.814h9.614a.815.815 0 0 1 .814.814v14.831a.817.817 0 0 1-.814.814m-9.614-16.9a1.259 1.259 0 0 0-1.258 1.256v14.83a1.259 1.259 0 0 0 1.258 1.256h9.614a1.257 1.257 0 0 0 1.256-1.256V15.238a1.257 1.257 0 0 0-1.256-1.256zm9.614 17.687H7.274a1.6 1.6 0 0 1-1.6-1.6V15.238a1.6 1.6 0 0 1 1.6-1.6h9.614a1.6 1.6 0 0 1 1.6 1.6v14.831a1.6 1.6 0 0 1-1.6 1.6"/>
        <path data-name="Path 14300" d="M8.692 16.5a.2.2 0 0 0-.2.2v10.142a.2.2 0 0 0 .2.2h6.778a.194.194 0 0 0 .195-.2V16.7a.2.2 0 0 0-.195-.2zm6.778 10.884H8.692a.544.544 0 0 1-.542-.542V16.7a.542.542 0 0 1 .542-.542h6.778a.541.541 0 0 1 .54.542v10.142a.542.542 0 0 1-.54.542m-6.778-11.6a.917.917 0 0 0-.917.916v10.142a.916.916 0 0 0 .917.917h6.778a.917.917 0 0 0 .916-.917V16.7a.918.918 0 0 0-.916-.916zM15.47 28.1H8.692a1.263 1.263 0 0 1-1.261-1.261V16.7a1.263 1.263 0 0 1 1.261-1.258h6.778a1.26 1.26 0 0 1 1.258 1.258v10.142A1.261 1.261 0 0 1 15.47 28.1"/>
        <path data-name="Path 14301" d="M11.074 29.012a.373.373 0 0 0 0 .745h2.363a.373.373 0 1 0 0-.745zm2.363 1.088h-2.363a.717.717 0 0 1 0-1.433h2.363a.717.717 0 0 1 0 1.433"/>
        <path data-name="Path 14302" d="M29.393 19.688a.47.47 0 0 0-.468.468v3.875a.471.471 0 0 0 .468.472h13.27a.472.472 0 0 0 .47-.472v-3.875a.472.472 0 0 0-.47-.468zm13.27 5.159h-13.27a.816.816 0 0 1-.812-.816v-3.875a.812.812 0 0 1 .812-.81h13.27a.813.813 0 0 1 .814.81v3.875a.816.816 0 0 1-.814.816M29.393 18.9a1.256 1.256 0 0 0-1.254 1.256v3.875a1.256 1.256 0 0 0 1.254 1.256h13.27a1.256 1.256 0 0 0 1.254-1.256v-3.875a1.256 1.256 0 0 0-1.254-1.256zm13.27 6.731h-13.27a1.6 1.6 0 0 1-1.6-1.6v-3.875a1.6 1.6 0 0 1 1.6-1.6h13.27a1.6 1.6 0 0 1 1.6 1.6v3.875a1.6 1.6 0 0 1-1.6 1.6"/>
        <path data-name="Path 14303" d="M40.736 18.948h.442V17.8a1.258 1.258 0 0 0-1.256-1.258h-7.79a1.258 1.258 0 0 0-1.256 1.258v1.146h.446V17.8a.813.813 0 0 1 .81-.812h7.79a.815.815 0 0 1 .814.812zm.786.344h-1.13V17.8a.471.471 0 0 0-.47-.47h-7.79a.468.468 0 0 0-.465.47v1.49h-1.133V17.8a1.6 1.6 0 0 1 1.6-1.6h7.79a1.6 1.6 0 0 1 1.6 1.6z"/>
        <path data-name="Path 14304" d="M30.878 25.337v3.335a1.259 1.259 0 0 0 1.255 1.261h7.789a1.26 1.26 0 0 0 1.258-1.261v-3.335h-.443v3.335a.819.819 0 0 1-.815.817h-7.789a.816.816 0 0 1-.81-.817v-3.335zm9.044 4.938h-7.789a1.6 1.6 0 0 1-1.6-1.6v-3.682h1.133v3.679a.47.47 0 0 0 .466.473h7.789a.472.472 0 0 0 .471-.473v-3.679h1.131v3.679a1.6 1.6 0 0 1-1.6 1.6"/>
        <path data-name="Path 14305" d="M33.344 26.287a.308.308 0 0 0-.3.31.3.3 0 0 0 .3.3h5.369a.305.305 0 0 0 .309-.3.31.31 0 0 0-.309-.31zm5.369.957h-5.369a.652.652 0 0 1 0-1.3h5.369a.651.651 0 0 1 0 1.3"/>
        <path data-name="Path 14306" d="M33.344 27.89a.306.306 0 0 0 0 .612h5.369a.306.306 0 1 0 0-.612zm5.369.954h-5.369a.649.649 0 0 1 0-1.3h5.369a.649.649 0 1 1 0 1.3"/>
        <path data-name="Path 14307" d="M21.191 22.538a.746.746 0 1 1-.747-.747.745.745 0 0 1 .747.747" style="fill:#2bbaed"/>
        <path data-name="Path 14308" d="M23.959 22.538a.747.747 0 1 1-.744-.747.746.746 0 0 1 .744.747" style="fill:#2bbaed"/>
        <path data-name="Path 14309" d="M26.692 22.538a.746.746 0 1 1-.747-.747.746.746 0 0 1 .747.747" style="fill:#2bbaed"/>
    </g>
</svg>
