<svg xmlns="http://www.w3.org/2000/svg" width="51.75" height="48" viewBox="0 0 51.75 48">
    <defs>
        <style>
            .cls-1{fill:#fff}.cls-3{fill:#ffd300}.cls-4{fill:#004c9d}
        </style>
    </defs>
    <g id="Group_23263" data-name="Group 23263" transform="translate(-521.345 136.833)">
        <path id="Path_14022" data-name="Path 14022" class="cls-1" d="M558.488-136.833h-26.2a10.945 10.945 0 0 0-10.939 10.922v26.156a10.945 10.945 0 0 0 10.939 10.922h26.2a10.944 10.944 0 0 0 10.939-10.922v-26.156a10.943 10.943 0 0 0-10.939-10.922"/>
        <path id="Path_14023" data-name="Path 14023" d="M559.7-133.834h-26.364a9 9 0 0 0-8.993 8.977v26.319a9 9 0 0 0 8.993 8.977H559.7a9 9 0 0 0 8.993-8.977v-26.319a9 9 0 0 0-8.993-8.977" transform="translate(-1.132 -1.136)" style="fill:#004c9a"/>
        <path id="Path_14024" data-name="Path 14024" class="cls-1" d="M547.386-104.8h-2.235a2.042 2.042 0 0 0-1.749 1.079l.224-1.181H540.9l-1.213 6.791h2.735l.755-4.3h2.941l-.543 3.082c-.167.953.481 1.185.8 1.185h1.43l.931-5.281a1.4 1.4 0 0 0-1.346-1.376" transform="translate(-6.925 -12.092)"/>
        <path id="Path_14025" data-name="Path 14025" class="cls-1" d="m538.155-104.905-.513 2.915 2.077-2.915z" transform="translate(-6.155 -12.092)"/>
        <path id="Path_14026" data-name="Path 14026" class="cls-1" d="M537.886-122.025h-9.146l-.4 2.25h3.193l-1.28 7.251h2.754l1.286-7.251h3.193z" transform="translate(-2.643 -5.608)"/>
        <path id="Path_14027" data-name="Path 14027" class="cls-1" d="M539.813-110.831a1.127 1.127 0 0 1-1.135-1.376l.7-3.971a1.719 1.719 0 0 1 1.622-1.376h4.484a1.123 1.123 0 0 1 1.132 1.376l-.7 3.971a1.722 1.722 0 0 1-1.621 1.376zm3.861-2.225.4-2.27h-2.451l-.4 2.27z" transform="translate(-6.538 -7.301)"/>
        <path id="Path_14028" data-name="Path 14028" class="cls-1" d="m567.943-113.055.4-2.27h3.549l.395-2.226h-4.567a1.721 1.721 0 0 0-1.623 1.374l-.7 3.971a1.126 1.126 0 0 0 1.137 1.376h4.439l.392-2.225z" transform="translate(-16.628 -7.302)"/>
        <path id="Path_14029" data-name="Path 14029" class="cls-1" d="M557.153-113.055h-3l.793-4.5h-2.394l-.941 5.345a1.125 1.125 0 0 0 1.133 1.376h2.334a2.491 2.491 0 0 0 1.867-1.033s.267.778.651.952a5.5 5.5 0 0 0 1.554.135l1.2-6.776h-2.4z" transform="translate(-11.42 -7.302)"/>
        <path id="Path_14030" data-name="Path 14030" class="cls-1" d="M583.85-119.066h-2.233a1.728 1.728 0 0 0-1.537 1.079l.643-3.651H578.2l-1.636 9.26h2.521l.757-4.3h2.731l-.543 3.082c-.168.955.482 1.185.8 1.185h1.22l.932-5.281a1.125 1.125 0 0 0-1.135-1.376" transform="translate(-20.855 -5.754)"/>
        <path id="Path_14031" data-name="Path 14031" class="cls-1" d="m578.214-98.345.719-4.052h-4.043l-.718 4.052zm-5.314 2.494a1.519 1.519 0 0 1-1.528-1.852l.944-5.337a2.313 2.313 0 0 1 2.184-1.853h5.7a1.517 1.517 0 0 1 1.527 1.853l-.944 5.337a2.318 2.318 0 0 1-2.181 1.852z" transform="translate(-18.882 -12.096)"/>
        <path id="Path_14032" data-name="Path 14032" class="cls-1" d="M560.788-98.345h-4.047l.716-4.052h6.559l.433-2.5h-7.38a2.312 2.312 0 0 0-2.18 1.853l-.945 5.337a1.517 1.517 0 0 0 1.526 1.852h5.706a2.315 2.315 0 0 0 2.181-1.852l.578-3.276h-2.685z" transform="translate(-12.3 -12.096)"/>
        <path id="Path_14033" data-name="Path 14033" class="cls-3" d="m550.776-85.058-3.564 7.333h-2.262l-.268-4.438-2.159 4.438h-2.274l-.434-7.333h1.61l.281 5.752 2.772-5.752h1.635l.281 5.752 2.772-5.752z" transform="translate(-6.975 -19.608)"/>
        <path id="Path_14034" data-name="Path 14034" class="cls-3" d="M567.29-77.725h-1.571l1.558-7.333h1.571z" transform="translate(-16.757 -19.608)"/>
        <path id="Path_14035" data-name="Path 14035" class="cls-3" d="M571.437-77.725h-1.571l1.558-7.333H573z" transform="translate(-18.323 -19.608)"/>
        <path id="Path_14036" data-name="Path 14036" class="cls-3" d="M588.117-77.725h-1.265a3.028 3.028 0 0 1-1.226-.172.7.7 0 0 1-.345-.695 3.215 3.215 0 0 1 .089-.689l1.227-5.777h1.571l-.4 1.823h1.521L589-81.908h-1.5l-.447 2.092a2.8 2.8 0 0 0-.064.421.272.272 0 0 0 .147.281 1.771 1.771 0 0 0 .594.064h.664z" transform="translate(-24.145 -19.608)"/>
        <path id="Path_14037" data-name="Path 14037" class="cls-3" d="M533.076-80.039h-2.8a1.916 1.916 0 0 1 .121-.407.611.611 0 0 1 .179-.236.611.611 0 0 1 .281-.108 2.936 2.936 0 0 1 .428-.025h1.252q.613 0 .614.383c0 .025-.026.157-.077.4m1.38-1.926a2.937 2.937 0 0 0-1.226-.178h-2.249a2.509 2.509 0 0 0-1.476.363 1.9 1.9 0 0 0-.683 1.205l-.5 2.385c-.034.144-.06.274-.077.388a2.109 2.109 0 0 0-.026.313.96.96 0 0 0 .077.414.6.6 0 0 0 .256.262 1.307 1.307 0 0 0 .485.14 6.361 6.361 0 0 0 .766.039h3.82l.281-1.313h-3.22a1.622 1.622 0 0 1-.594-.07.287.287 0 0 1-.147-.288 2.178 2.178 0 0 1 .051-.408h4.317l.4-1.862a3.385 3.385 0 0 0 .09-.7.7.7 0 0 0-.345-.689" transform="translate(-2.597 -20.712)"/>
        <path id="Path_14038" data-name="Path 14038" class="cls-3" d="M556.914-77.939q-.344 0-.345-.294a.458.458 0 0 1 .141-.325.49.49 0 0 1 .371-.147h2.362l-.164.77zm4.5-3.75a.6.6 0 0 0-.269-.261 1.464 1.464 0 0 0-.485-.134 6.083 6.083 0 0 0-.747-.039h-3.803l-.281 1.326h3.219a1.757 1.757 0 0 1 .594.064.273.273 0 0 1 .147.28 2.759 2.759 0 0 1-.063.42h-2.491a6.08 6.08 0 0 0-.914.057 1.478 1.478 0 0 0-.607.223 1.122 1.122 0 0 0-.383.472 4.315 4.315 0 0 0-.256.8l-.063.306a3.174 3.174 0 0 0-.09.688.97.97 0 0 0 .083.434.591.591 0 0 0 .268.262 1.462 1.462 0 0 0 .485.134 6.082 6.082 0 0 0 .748.038h4.062l.843-3.953a3.174 3.174 0 0 0 .09-.688.984.984 0 0 0-.083-.434" transform="translate(-12.68 -20.72)"/>
        <path id="Path_14039" data-name="Path 14039" class="cls-3" d="M579.195-80.039h-2.8a1.916 1.916 0 0 1 .121-.407.611.611 0 0 1 .179-.236.61.61 0 0 1 .281-.108 2.936 2.936 0 0 1 .428-.025h1.252q.613 0 .614.383 0 .038-.077.4m1.38-1.926a2.937 2.937 0 0 0-1.226-.178H577.1a2.509 2.509 0 0 0-1.476.363 1.9 1.9 0 0 0-.683 1.205l-.5 2.385c-.034.144-.06.274-.077.388a2.109 2.109 0 0 0-.025.313.96.96 0 0 0 .077.414.6.6 0 0 0 .256.262 1.307 1.307 0 0 0 .485.14 6.362 6.362 0 0 0 .766.039h3.82l.281-1.313h-3.219a1.624 1.624 0 0 1-.594-.07.287.287 0 0 1-.147-.288 2.168 2.168 0 0 1 .051-.408h4.319l.4-1.862a3.344 3.344 0 0 0 .09-.7.7.7 0 0 0-.345-.689" transform="translate(-20.013 -20.712)"/>
        <path id="Path_14040" data-name="Path 14040" class="cls-4" d="M600.068-133.686h-.653v1.924h-.159v-1.924h-.656v-.148h1.466z" transform="translate(-29.175 -1.136)"/>
        <path id="Path_14041" data-name="Path 14041" class="cls-4" d="M603.357-131.762h-.157v-1.838l-.768 1.273h-.026l-.769-1.273v1.841h-.157v-2.072h.2l.741 1.226.741-1.226h.2z" transform="translate(-30.262 -1.136)"/>
    </g>
</svg>
