<svg id="Group_23190" data-name="Group 23190" xmlns="http://www.w3.org/2000/svg" width="48" height="48" viewBox="0 0 48 48">
    <defs>
        <clipPath id="clip-path">
            <path id="Rectangle_3934" data-name="Rectangle 3934" style="fill:none" d="M0 0h48v48H0z"/>
        </clipPath>
        <style>
            
        </style>
    </defs>
    <path id="Path_14256" data-name="Path 14256" d="M18 32.981h-4.488v-22.5h16.447V15h-1.5v-3.017H15.015v19.5H18z" style="fill:#2bbaed"/>
    <path id="Path_14257" data-name="Path 14257" d="M34.5 16.5h-15v21h15zM33 35.995H21V18h12z"/>
    <path id="Rectangle_3926" data-name="Rectangle 3926" transform="translate(22.499 19.496)" d="M0 0h4.504v1.492H0z"/>
    <path id="Rectangle_3927" data-name="Rectangle 3927" transform="translate(22.499 22.487)" d="M0 0h8.999v1.492H0z"/>
    <path id="Rectangle_3928" data-name="Rectangle 3928" transform="translate(22.499 25.488)" d="M0 0h7.5v1.492H0z"/>
    <path id="Rectangle_3929" data-name="Rectangle 3929" transform="translate(22.499 28.491)" d="M0 0h8.999v1.494H0z"/>
    <path id="Rectangle_3930" data-name="Rectangle 3930" transform="translate(16.501 13.488)" style="fill:#2bbaed" d="M0 0h6.001v1.492H0z"/>
    <path id="Rectangle_3931" data-name="Rectangle 3931" transform="translate(16.501 16.482)" style="fill:#2bbaed" d="M0 0h1.492v1.492H0z"/>
    <path id="Rectangle_3932" data-name="Rectangle 3932" transform="translate(16.501 19.482)" style="fill:#2bbaed" d="M0 0h1.492v1.492H0z"/>
    <path id="Rectangle_3933" data-name="Rectangle 3933" transform="translate(16.501 22.485)" style="fill:#2bbaed" d="M0 0h1.492v1.492H0z"/>
</svg>
