<svg xmlns="http://www.w3.org/2000/svg" width="944" height="447.395" viewBox="0 0 944 447.395">
    <defs>
        <clipPath id="clip-path">
            <path id="Rectangle_5324" data-name="Rectangle 5324" style="fill:none" d="M0 0h944v447.395H0z"/>
        </clipPath>
        <style>
            .cls-4,.cls-5{fill:#400000}.cls-4{opacity:.25}.cls-5{opacity:.36}.cls-8,.cls-9{stroke:none}.cls-9{fill:#400000}
        </style>
    </defs>
    <g id="Group_23191" data-name="Group 23191" transform="translate(-93.208 16.719)" style="opacity:.503">
        <g id="Group_23190" data-name="Group 23190" transform="translate(93.209 -16.719)" style="clip-path:url(#clip-path)">
            <g id="Group_23189" data-name="Group 23189" transform="translate(106.405 25.757)">
                <path id="Path_14442" data-name="Path 14442" class="cls-4" d="M115.668 22.925c-.052-.2-.2-.439-.133-.6.5-1.265.173-2.662.653-3.927a1.791 1.791 0 0 1 .491-.86l.214-.606a2.928 2.928 0 0 0 .67-1.294c.121-.37.121-.855.56-1.074.11-.295.525-.323.583-.664l.127.04-.127-.04c.15-.179.416-.266.45-.543l.075-.329.029-.028c.3-.3.733-.427.924-.676a6.125 6.125 0 0 1 .808-.843c.26-.219.474-.254.606-.56a3.177 3.177 0 0 1 .52-.728 1.066 1.066 0 0 1 .214-.185l-.115.462.115-.462a2.255 2.255 0 0 0 .4-.237c.41-.2.7-.635 1.172-.722.5-.78 1.432-.653 2.143-1.011a8.818 8.818 0 0 1 2.044-.606L130 7.079c4.181.37 6.589-.035 10.632 2.391-.11.052-.225.11-.335.167a3.665 3.665 0 0 1 .676.526l.456.087c.347.185.543.612 1 .641.589.947 1.455 1.681 1.992 2.656-.092.318.1.485.329.641l.017.012.023-.1a26.985 26.985 0 0 0 1.877 3.852c0 .127-.029.208.168.318a.517.517 0 0 1-.046.133c-.191.029.006.295-.069.427a1.4 1.4 0 0 1 .156.728c.04.1.075.191.11.283l.306.6a.716.716 0 0 1 .1.693l-.075.335-.139.566a1.008 1.008 0 0 0 .208.173 36.723 36.723 0 0 0-.4 4.089 5.188 5.188 0 0 1-.329.52c-.219 1.126-.664 2.189-.9 3.3-.017.092-.075.185-.1.277-.733 1.022-1.744 1.8-2.42 2.824l-.029-.035.115-.133-.115.133-.7 1.034-.456.266a.931.931 0 0 1-.635.266 2.111 2.111 0 0 1-.283.306 5.19 5.19 0 0 0-.427.3l-1.045.8c-1.184.312-2.085 1.253-3.309 1.444a.369.369 0 0 0-.254-.214.364.364 0 0 1 .254.219c-.139.069-.289.214-.422.2-1.167-.127-2.073.537-3.061.964a8.612 8.612 0 0 0-1.94-.45c-.168-.006-.243 0-.283.144l-.04.023-.3-.052c-.422-.092-.884-.52-1.224.133l-.121-.029c-.029-.133-.087-.15-.162-.035l-.012.006-.329-.052a11.266 11.266 0 0 0-3.28-1.282 8.067 8.067 0 0 1-2.633-1.322c-.982-.693-1.842-1.548-2.766-2.316a4.279 4.279 0 0 1-.687-.832 18.6 18.6 0 0 0-1.392-2.379 4.641 4.641 0 0 1-1.224-2.194c-.063-.641.219-1.444-.237-1.906-1.022-1.011-.566-2.177-.572-3.3z" transform="translate(-93.081 104.595)"/>
                <path id="Path_14443" data-name="Path 14443" class="cls-4" d="M182.255 2.192c-.479-1.057.191-1.808.5-2.668.017-.162-.023-.387.069-.485.733-.82.884-1.969 1.6-2.789.127-.266.393-.37.618-.52l.329-.393a2.355 2.355 0 0 0 .872-.8c.2-.248.335-.612.728-.653.167-.2.491-.1.629-.341l.087.069-.087-.069c.162-.1.393-.081.5-.283l.15-.231.029-.012c.312-.144.676-.115.889-.248a4.622 4.622 0 0 1 .849-.41c.26-.1.433-.064.618-.26a2.359 2.359 0 0 1 .6-.4.512.512 0 0 1 .214-.081l-.22.318.22-.318a1.881 1.881 0 0 0 .375-.069c.364-.04.7-.283 1.086-.214.595-.45 1.27-.092 1.906-.162a7.011 7.011 0 0 1 1.727.115l1.542.271c3.061 1.461 5 1.831 7.38 4.811-.1.006-.2.017-.3.029a3.34 3.34 0 0 1 .358.589l.318.191c.214.243.243.624.583.774.173.878.624 1.681.757 2.57-.156.214-.052.4.069.577l.012.012.04-.064a22.271 22.271 0 0 0 .341 3.448c-.04.092-.081.144.035.289l-.069.087c-.156-.035-.081.225-.173.306a1.108 1.108 0 0 1-.092.595c.006.081.006.162.006.243l.063.543a.56.56 0 0 1-.121.549l-.15.237-.26.393a.68.68 0 0 0 .11.185 29.727 29.727 0 0 0-1.455 2.986 4.226 4.226 0 0 1-.4.3c-.485.791-1.12 1.473-1.611 2.252-.04.058-.11.115-.156.179-.843.566-1.825.872-2.628 1.455l-.011-.035c-.277.2-.549.393-.826.583l-.416.075a.783.783 0 0 1-.56.023 1.814 1.814 0 0 1-.3.15 3.214 3.214 0 0 0-.4.11l-1.022.312c-.988-.1-1.929.364-2.911.162a.3.3 0 0 0-.133-.237.3.3 0 0 1 .133.237c-.127.017-.283.081-.375.035a4.832 4.832 0 0 0-2.593-.133 6.788 6.788 0 0 0-1.345-.889c-.121-.052-.179-.069-.254.029l-.035.006-.214-.121c-.295-.191-.52-.647-.964-.243l-.087-.058c.017-.115-.017-.139-.11-.075l-.012.006-.231-.133a9.065 9.065 0 0 0-2.125-1.9 6.436 6.436 0 0 1-1.623-1.744c-.549-.8-.959-1.692-1.444-2.535a3.213 3.213 0 0 1-.283-.82 14.409 14.409 0 0 0-.387-2.194 3.757 3.757 0 0 1-.306-2c.127-.506.566-1.035.347-1.514z" transform="translate(223.763 28.339)"/>
                <path id="Path_14444" data-name="Path 14444" class="cls-4" d="M153.334 23.424c-.485-1.057.185-1.813.5-2.668.023-.167-.023-.387.069-.491.733-.82.884-1.969 1.605-2.789.127-.266.387-.364.612-.514l.335-.4a2.389 2.389 0 0 0 .872-.791c.2-.248.329-.612.728-.658.162-.191.485-.1.624-.335l.087.069-.087-.069c.168-.1.393-.087.5-.283l.15-.231.029-.012c.312-.144.676-.115.889-.254a5.027 5.027 0 0 1 .849-.41c.266-.092.433-.064.618-.254a2.647 2.647 0 0 1 .6-.4.632.632 0 0 1 .214-.075l-.219.312.219-.312a3.121 3.121 0 0 0 .375-.069c.37-.04.7-.283 1.091-.214.589-.45 1.271-.092 1.906-.167a7.266 7.266 0 0 1 1.721.121l1.542.271c3.061 1.455 5 1.831 7.38 4.8a2.656 2.656 0 0 0-.3.035 3.169 3.169 0 0 1 .358.583l.323.2c.213.243.242.618.577.768.179.884.63 1.681.756 2.576-.156.214-.052.393.069.577l.012.012.04-.064a22.212 22.212 0 0 0 .341 3.442c-.035.1-.081.15.035.289l-.069.087c-.156-.029-.081.225-.173.306a1.111 1.111 0 0 1-.087.595 1.7 1.7 0 0 1 0 .243l.069.549a.577.577 0 0 1-.121.549l-.15.237-.266.387a.9.9 0 0 0 .11.191 29.8 29.8 0 0 0-1.455 2.986 4.493 4.493 0 0 1-.4.3c-.479.791-1.115 1.467-1.611 2.246a2.228 2.228 0 0 1-.15.179c-.849.572-1.831.878-2.633 1.461l-.018-.035-.826.583-.416.075a.813.813 0 0 1-.56.023 1.775 1.775 0 0 1-.294.15 3.3 3.3 0 0 0-.41.11l-1.022.312c-.982-.1-1.929.358-2.911.162a.3.3 0 0 0-.133-.237.3.3 0 0 1 .133.237c-.127.012-.277.081-.375.035a4.775 4.775 0 0 0-2.593-.133 6.78 6.78 0 0 0-1.34-.9c-.127-.046-.185-.064-.26.035h-.035l-.208-.116c-.295-.2-.526-.647-.97-.248l-.081-.058c.012-.11-.023-.133-.116-.069h-.006l-.237-.133a9.175 9.175 0 0 0-2.125-1.894 6.32 6.32 0 0 1-1.615-1.744c-.549-.8-.964-1.692-1.45-2.535a3.4 3.4 0 0 1-.283-.826 15.418 15.418 0 0 0-.381-2.194 3.743 3.743 0 0 1-.312-2c.135-.506.579-1.035.36-1.511z" transform="translate(85.645 129.72)"/>
                <path id="Path_14445" data-name="Path 14445" class="cls-4" d="M227.874 16.4c-.295-1.126-1.276-2.293-.791-3.355 1.08-2.345-.416-4.019-1.109-5.925-.046-.37.052-.86-.15-1.086-1.628-1.825-1.963-4.377-3.563-6.2-.277-.589-.866-.814-1.363-1.149l-.739-.878a5.256 5.256 0 0 1-1.94-1.761c-.439-.549-.733-1.363-1.617-1.455-.364-.427-1.08-.214-1.392-.751a1.216 1.216 0 0 0-.191.15 1.216 1.216 0 0 1 .191-.15c-.364-.214-.866-.185-1.1-.629l-.329-.508-.063-.029c-.693-.323-1.507-.254-1.975-.56a11.22 11.22 0 0 0-1.888-.912c-.583-.208-.964-.139-1.375-.566a5.465 5.465 0 0 0-1.334-.9 1.343 1.343 0 0 0-.474-.173 4.844 4.844 0 0 1-.831-.156c-.82-.081-1.571-.624-2.42-.474-1.322-1-2.824-.208-4.233-.364a15.647 15.647 0 0 0-3.829.26l-3.43.606c-6.8 3.24-11.105 4.066-16.4 10.684a6.585 6.585 0 0 1 .67.069 6.743 6.743 0 0 0-.8 1.3l-.716.433c-.474.537-.537 1.38-1.282 1.709-.4 1.958-1.4 3.736-1.692 5.723.352.474.127.878-.15 1.276l-.023.029-.093-.144a49.985 49.985 0 0 1-.751 7.652.494.494 0 0 1-.081.647.808.808 0 0 0 .156.191c.341-.069.173.5.381.681a2.371 2.371 0 0 0 .2 1.317 4.245 4.245 0 0 0-.012.543c-.046.4-.1.8-.144 1.207a1.289 1.289 0 0 0 .266 1.23l.341.514.577.872a1.7 1.7 0 0 1-.242.416 66.412 66.412 0 0 1 3.234 6.63 8.831 8.831 0 0 0 .884.67c1.074 1.756 2.483 3.263 3.58 5 .087.139.243.266.341.4 1.877 1.259 4.06 1.94 5.844 3.234l.023-.075-.277-.15.277.15 1.837 1.3.93.162a1.723 1.723 0 0 0 1.236.052 4.48 4.48 0 0 0 .664.335 8.067 8.067 0 0 1 .907.243l2.264.693c2.194-.219 4.291.8 6.474.364a.645.645 0 0 1 .092-.318.645.645 0 0 0-.092.318c.283.029.624.179.837.075 1.883-.959 3.829-.4 5.758-.3a15.453 15.453 0 0 1 2.98-1.981c.271-.1.4-.15.572.075l.075.006.474-.266c.653-.427 1.161-1.432 2.148-.549a2.1 2.1 0 0 1 .185-.127c-.035-.243.046-.3.254-.156l.017.006.52-.295a20.291 20.291 0 0 1 4.718-4.221 14.181 14.181 0 0 0 3.6-3.869c1.213-1.779 2.131-3.754 3.205-5.631a7.648 7.648 0 0 0 .635-1.831c.445-1.611.167-3.344.849-4.874a8.289 8.289 0 0 0 .695-4.454z" transform="translate(170.001 15.497)"/>
                <path id="Path_14446" data-name="Path 14446" class="cls-4" d="M269.154 51.282c-.578-2.206-2.495-4.493-1.542-6.566 2.1-4.585-.814-7.854-2.177-11.573h.006c-.087-.722.1-1.686-.3-2.131-3.176-3.557-3.835-8.547-6.959-12.11-.543-1.155-1.692-1.594-2.662-2.246-.479-.572-.964-1.143-1.444-1.715a10.281 10.281 0 0 1-3.794-3.442c-.855-1.074-1.432-2.668-3.159-2.847-.716-.837-2.108-.427-2.714-1.467a2.753 2.753 0 0 0-.381.289 3.331 3.331 0 0 1 .381-.295c-.722-.416-1.7-.364-2.166-1.236l-.647-.988-.121-.052c-1.351-.629-2.945-.5-3.858-1.1a21.266 21.266 0 0 0-3.7-1.779c-1.132-.4-1.871-.271-2.68-1.109a10.431 10.431 0 0 0-2.6-1.75 2.672 2.672 0 0 0-.93-.341L228.666.2l-.966-1.371a9.647 9.647 0 0 1-1.623-.3c-1.594-.167-3.066-1.219-4.724-.93-2.581-1.958-5.521-.4-8.281-.7a30.439 30.439 0 0 0-7.472.501l-6.7 1.184c-13.288 6.324-21.708 7.935-32.039 20.871.433.023.872.075 1.305.133a13.925 13.925 0 0 0-1.565 2.553l-1.392.837c-.924 1.051-1.051 2.7-2.512 3.344-.768 3.823-2.726 7.3-3.3 11.18.682.924.243 1.715-.295 2.495l-.046.064-.185-.289a97.7 97.7 0 0 1-1.471 14.964.946.946 0 0 1-.156 1.253 1.714 1.714 0 0 0 .3.375c.676-.133.346.976.751 1.334a4.716 4.716 0 0 0 .393 2.576 9.3 9.3 0 0 0-.017 1.057c-.1.791-.19 1.577-.289 2.362a2.513 2.513 0 0 0 .52 2.4c.225.341.445.676.664 1.016.375.566.757 1.132 1.132 1.7a3.187 3.187 0 0 1-.473.808 130.665 130.665 0 0 1 6.323 12.965 16.837 16.837 0 0 0 1.721 1.311c2.1 3.43 4.857 6.376 7 9.76.173.271.474.52.67.785 3.667 2.466 7.929 3.806 11.417 6.329a.829.829 0 0 1 .052-.156l-.543-.283.543.283 3.581 2.541 1.819.318a3.336 3.336 0 0 0 2.42.11 9.383 9.383 0 0 0 1.294.653 15.085 15.085 0 0 1 1.773.468l4.429 1.357c4.279-.427 8.379 1.571 12.641.7a1.3 1.3 0 0 1 .185-.612 1.3 1.3 0 0 0-.185.612c.554.064 1.224.358 1.64.15 3.684-1.865 7.484-.78 11.255-.583 1.917-1.322 3.592-2.991 5.827-3.863.531-.214.785-.3 1.114.139l.15.012.918-.526c1.282-.832 2.269-2.8 4.2-1.063a2.752 2.752 0 0 1 .37-.248c-.075-.479.087-.589.491-.306l.035.006 1.011-.572a39.622 39.622 0 0 1 9.228-8.247 27.769 27.769 0 0 0 7.034-7.571c2.379-3.471 4.175-7.34 6.272-11a14.412 14.412 0 0 0 1.236-3.575c.872-3.153.335-6.543 1.669-9.529a16.261 16.261 0 0 0 1.339-8.7z" transform="translate(106.17 54.518)"/>
                <path id="Path_14447" data-name="Path 14447" class="cls-4" d="M304.538 55.091c-.624-2.385-2.7-4.857-1.669-7.109 2.281-4.961-.878-8.506-2.356-12.537h.006c-.092-.78.1-1.825-.323-2.3-3.442-3.858-4.152-9.257-7.536-13.121-.595-1.247-1.831-1.727-2.882-2.431-.526-.618-1.051-1.242-1.571-1.86A11.1 11.1 0 0 1 284.1 12c-.924-1.167-1.553-2.887-3.425-3.084-.774-.907-2.287-.462-2.939-1.594a2.782 2.782 0 0 0-.41.318 2.782 2.782 0 0 1 .41-.318c-.78-.45-1.848-.393-2.345-1.34l-.7-1.068-.133-.064c-1.467-.676-3.188-.537-4.175-1.178a23.43 23.43 0 0 0-4.008-1.935c-1.224-.439-2.027-.295-2.9-1.2a11.829 11.829 0 0 0-2.824-1.894 3.056 3.056 0 0 0-1.011-.37l1.039 1.49-1.039-1.49a9.947 9.947 0 0 1-1.761-.323c-1.727-.179-3.321-1.322-5.117-1-2.8-2.119-5.983-.439-8.968-.768a33.29 33.29 0 0 0-8.1.554l-7.253 1.282c-14.4 6.849-23.516 8.593-34.707 22.609.474.023.947.075 1.415.144a15.165 15.165 0 0 0-1.692 2.76l-1.513.907c-1 1.138-1.132 2.922-2.714 3.627-.837 4.141-2.957 7.9-3.575 12.1.733 1 .26 1.86-.318 2.708l-.052.064-.2-.306a105.113 105.113 0 0 1-1.588 16.2c.168.462.375.693-.167 1.363a1.811 1.811 0 0 0 .323.4c.733-.15.375 1.057.814 1.444a5.109 5.109 0 0 0 .427 2.789 9.607 9.607 0 0 0-.023 1.149c-.1.849-.208 1.7-.306 2.558a2.688 2.688 0 0 0 .56 2.593c.243.37.479.733.716 1.1l1.23 1.836a3.565 3.565 0 0 1-.514.878 142.184 142.184 0 0 1 6.849 14.039 18.208 18.208 0 0 0 1.865 1.421c2.275 3.713 5.255 6.907 7.582 10.574.185.295.508.566.722.849 3.973 2.674 8.587 4.118 12.364 6.861a.678.678 0 0 1 .058-.173l-.589-.306.589.306 3.881 2.755 1.969.341a3.6 3.6 0 0 0 2.616.116 9.472 9.472 0 0 0 1.409.71 15.34 15.34 0 0 1 1.917.508l4.8 1.467c4.637-.462 9.078 1.7 13.692.768.6.064 1.328.387 1.773.156 3.991-2.015 8.114-.843 12.2-.624 2.073-1.432 3.887-3.24 6.306-4.193.577-.225.855-.323 1.213.156l.162.012.993-.566c1.386-.907 2.46-3.032 4.551-1.155a2.6 2.6 0 0 1 .393-.266c-.075-.526.1-.641.537-.335l.035.006 1.1-.618a42.953 42.953 0 0 1 10-8.934 30.085 30.085 0 0 0 7.617-8.2c2.576-3.759 4.522-7.946 6.8-11.914a16.309 16.309 0 0 0 1.34-3.875c.941-3.413.358-7.086 1.8-10.32a17.633 17.633 0 0 0 1.437-9.416z" transform="translate(230.7 51.016)"/>
                <g id="Group_23187" data-name="Group 23187" transform="translate(299.609 86.566)">
                    <g id="Group_23186" data-name="Group 23186" transform="translate(2.477)">
                        <path id="Path_14448" data-name="Path 14448" class="cls-5" d="M188.234 24.968c.295 3.615-.918 7.23-.716 10.915a18.8 18.8 0 0 0 .572 4.8c1.629 5.145 2.812 10.464 4.839 15.448a35.413 35.413 0 0 0 6.734 11.377c3.482 3.754 7.022 7.941 9.28 12.815l1.109.993h.046c.577-.243.751-.069.531.514a3.7 3.7 0 0 1 .387.41c2.882-1.64 3.586 1.086 4.955 2.472.335.3.676.6 1.011.907l.191.023c.531-.456.82-.277 1.432.127a18.787 18.787 0 0 1 3.783 3.592c-14.524-.046-27.338-1.7-36.59-5.394-7.045-2.812-11.827-6.116-15.067-9.355-7.484-7.484-6.768-14.639-6.768-14.639s.392-19.401 24.271-35.005z" transform="translate(-163.944 103.447)"/>
                        <path id="Path_14449" data-name="Path 14449" class="cls-5" d="M196.319 169.885q.944-.9 1.877-1.813c.37-.358.733-.722 1.1-1.086a3.207 3.207 0 0 0 1.305-2.853l.283-3.026a10.815 10.815 0 0 0 .266-1.328 6.018 6.018 0 0 0 1.19-3.113c.606-.335.5-1.813 1.305-1.461a2.173 2.173 0 0 0 .479-.387 1.209 1.209 0 0 1 .144-1.611 123.364 123.364 0 0 1 2.241-19.086l-.306.306-.046-.087c-.456-1.12-.785-2.229.312-3.2.341-5.007-1.155-9.881-1.08-14.865-1.646-1.207-1.351-3.3-2.223-4.862l-1.513-1.432a17.8 17.8 0 0 0-1.259-3.609c.56.046 1.115.1 1.669.191-.7-1.051-1.421-2.062-2.137-3.066 24.543-4.753 42.29-11.59 63.466-25.306 38.074-24.665 104.711-68.138 117.722-72.66s25.949-5.417 25.609 11.821c-.248 12.277-17.931 15.436-33.385 24.8s-81.045 59.014-103.839 82.9c-18.607 19.508-50.715 42.22-79.769 54.44a99.127 99.127 0 0 1 6.965-8.472 4.15 4.15 0 0 1-.376-1.135z" transform="translate(-40.817 -2.731)"/>
                        <path id="Path_14450" data-name="Path 14450" class="cls-4" d="M235.317 13.692a11.425 11.425 0 0 0 2.108.069c2.039.231 4.169-.687 6.156.127 3.76-1.744 7.011 1 10.539 1.369 3.124.329 6.162 1.553 9.205 2.674v-.017c9.812 4.366 26.339 15.535 40.257 35.054.716 1 1.432 2.015 2.137 3.066a20.733 20.733 0 0 0-1.669-.191 17.8 17.8 0 0 1 1.259 3.609l1.513 1.432c.872 1.559.577 3.656 2.223 4.862-.075 4.984 1.421 9.858 1.08 14.865-1.1.97-.768 2.079-.312 3.2l.046.087.306-.306a123.367 123.367 0 0 0-2.241 19.086 1.209 1.209 0 0 0-.144 1.611 2.173 2.173 0 0 1-.479.387c-.809-.352-.7 1.126-1.305 1.461a6.018 6.018 0 0 1-1.19 3.113 10.815 10.815 0 0 1-.266 1.328l-.283 3.026a3.207 3.207 0 0 1-1.305 2.853c-.37.364-.733.728-1.1 1.086q-.936.91-1.877 1.813a4.151 4.151 0 0 0 .375 1.143 99.115 99.115 0 0 0-6.965 8.472 135.537 135.537 0 0 1-18.93 6.5c-23.487 5.965-49.485 9.615-71.54 9.54a18.786 18.786 0 0 0-3.782-3.592c-.612-.4-.9-.583-1.432-.127l-.191-.023c-.335-.306-.676-.606-1.011-.907-1.369-1.386-2.073-4.112-4.955-2.472a3.7 3.7 0 0 0-.387-.41c.219-.583.046-.757-.531-.514h-.046l-1.109-.993c-2.258-4.874-5.8-9.061-9.28-12.815a35.412 35.412 0 0 1-6.734-11.377c-2.027-4.984-3.211-10.3-4.839-15.448a18.8 18.8 0 0 1-.572-4.8c-.2-3.684 1.011-7.3.716-10.915a11.278 11.278 0 0 0-.2-1.444 20.68 20.68 0 0 1 .7-11.232c1.317-2.593 4.337-4.926 3.708-7.779-1.38-6.3 3.153-9.592 5.867-13.871.3-.878.335-2.131.947-2.576 4.938-3.586 7.12-9.633 11.994-13.242.993-1.288 2.547-1.53 3.933-2.079q1.135-.875 2.281-1.75c2.264-.45 3.916-1.836 5.671-3.269 1.357-1.109 2.512-2.939 4.718-2.7 1.126-.849 2.755.046 3.8-1.091a3.826 3.826 0 0 1 .393.468 4.379 4.379 0 0 0-.393-.474c1.011-.323 2.223.012 3.038-.953l1.074-1.063.167-.035c1.865-.416 3.812.179 5.117-.312a27.1 27.1 0 0 1 5.1-1.219c1.53-.2 2.42.167 3.656-.658a13.578 13.578 0 0 1 3.731-1.478 3.531 3.531 0 0 1 1.259-.173" transform="translate(-144.47 47.797)"/>
                    </g>
                    <g id="Path_14451" data-name="Path 14451" style="opacity:.3;stroke-miterlimit:10;fill:none">
                        <path class="cls-8" d="M531.892 5.142c0 .231.006.456.006.7-.248 12.277-17.931 15.436-33.385 24.8s-81.045 59.014-103.839 82.9-65.828 52.592-98.7 60.943c-38.952 9.892-84.828 13.438-108.13 4.146s-21.835-23.995-21.835-23.995a23.462 23.462 0 0 1 .647-4.279 32.8 32.8 0 0 0-3.142 11.573s-.468 12.283 21.835 23.995c37.19 19.537 68.808 24.168 107.766 14.276 32.865-8.35 63.946-26.351 98.9-70.766 20.507-26.068 88.553-82.131 104.006-91.5s36.679-13.643 36.928-25.921a17.731 17.731 0 0 0-1.057-6.872z" transform="translate(-163.515 8.78)"/>
                        <path class="cls-9" d="M531.993 10.11c-.258.658-.576 1.299-.956 1.927-1.024 1.69-2.486 3.253-4.47 4.778-3.632 2.793-8.61 5.12-13.88 7.583-4.509 2.107-9.171 4.286-13.699 7.03-15.505 9.399-80.988 59-103.65 82.754-5.718 5.994-12.617 12.222-20.505 18.511-7.93 6.321-16.42 12.354-25.237 17.93-9.196 5.816-18.33 10.867-27.146 15.013-9.442 4.44-18.274 7.718-26.25 9.745a326.481 326.481 0 0 1-36.052 7.01c-12.482 1.704-24.28 2.568-35.069 2.568-7.608 0-14.596-.44-20.77-1.307-6.52-.916-12.174-2.316-16.804-4.162-5.41-2.158-9.952-4.791-13.5-7.827-2.867-2.451-5.097-5.17-6.63-8.082-1.34-2.546-1.91-4.79-2.145-6.404-.742 2.929-.797 4.75-.797 4.778v-.001.013c-.001.029-.05 2.975 2.519 7.264 1.518 2.534 3.638 5.033 6.3 7.427 3.346 3.007 7.56 5.854 12.525 8.462 12.506 6.569 24.063 11.288 35.332 14.427 11.549 3.217 22.804 4.781 34.41 4.781 11.87 0 24.095-1.639 37.371-5.01 8.648-2.197 16.583-4.907 24.26-8.285 8.383-3.689 16.272-8.086 24.115-13.442 17.006-11.614 33.37-27.55 50.026-48.717 4.821-6.129 12.498-14.228 22.817-24.073 8.851-8.445 19.642-18.15 31.205-28.068 10.263-8.802 21.006-17.655 30.251-24.928 9.057-7.126 16.152-12.327 19.978-14.646 4.771-2.893 10.034-5.282 15.124-7.593 5.695-2.584 11.073-5.026 15.024-7.855 4.254-3.047 6.269-6.134 6.341-9.714.013-.652 0-1.282-.038-1.888m-.101-4.967c.728 1.842 1.109 4.106 1.057 6.872-.249 12.278-21.477 16.557-36.931 25.93-15.454 9.366-83.5 65.43-104.006 91.497-34.95 44.415-66.03 62.416-98.896 70.766-38.957 9.893-70.575 5.261-107.765-14.275-22.303-11.712-21.835-23.995-21.835-23.995s.098-4.816 3.141-11.573c-.612 2.662-.647 4.28-.647 4.28s-1.472 14.696 21.835 23.994c23.302 9.292 69.178 5.746 108.13-4.147 32.87-8.35 75.911-37.051 98.7-60.942 22.793-23.891 88.384-73.538 103.838-82.905 15.454-9.367 33.136-12.526 33.385-24.803 0-.243-.006-.468-.006-.699z" transform="translate(-163.515 8.78)"/>
                    </g>
                </g>
                <g id="Group_23188" data-name="Group 23188">
                    <path id="Path_14452" data-name="Path 14452" class="cls-5" d="M111.76-2.212c-.346-11.746 8.478-11.226 17.377-8.229s54.625 32.2 80.745 48.763a111.836 111.836 0 0 0 26.38 12.653c-.168.312-.323.624-.52.924-.335.514-.006 1.461.017 2.206-.826 3.973-3.3 7.727-.479 12.064 1.276 1.963-.323 4.568-.583 6.884a16.662 16.662 0 0 0 2.656 8.628c1.8 2.83 1.761 6.347 3.113 9.413a14.985 14.985 0 0 0 1.785 3.442c1.415 1.8 2.749 3.656 4.123 5.475-15.448-8.391-30.578-19.652-40.349-29.695-15.7-16.141-60.741-49.555-71.338-55.838s-22.678-8.322-22.927-16.69z" transform="translate(-111.078 12.259)"/>
                    <path id="Path_14453" data-name="Path 14453" class="cls-5" d="M149.337 44.21a8.964 8.964 0 0 0 1.219-.855 3.426 3.426 0 0 0 2.437-.474l1.8-.589c1.086-1.039 2.166-2.079 3.251-3.113l.514-.375-.514.375a.542.542 0 0 1 .081.15c3.159-3.084 7.282-5.076 10.632-8.125.162-.3.427-.6.56-.9 1.669-3.754 4.025-7.155 5.642-10.949a16.712 16.712 0 0 0 1.553-1.588 132.962 132.962 0 0 1 4.476-14.091 3.244 3.244 0 0 1-.6-.751l.087-.173c14.414 10.233 14.8 22.36 14.8 22.36s.531 4.874-4.522 10.025a29.973 29.973 0 0 1-10.21 6.479c-8.108 3.326-20.3 4.377-33.829 3.754l.9-.427a15.22 15.22 0 0 1 1.723-.733z" transform="translate(55.852 83.962)"/>
                    <path id="Path_14454" data-name="Path 14454" class="cls-4" d="M133.643 55.544c.26-2.316 1.86-4.92.583-6.884-2.818-4.337-.347-8.091.479-12.064-.023-.745-.352-1.692-.017-2.206.2-.3.352-.612.52-.924 2.142-3.921 2.287-8.616 4.724-12.4.387-1.247 1.478-1.871 2.368-2.674l1.213-1.958a10.608 10.608 0 0 0 3.332-4.054c.7-1.219 1.051-2.922 2.778-3.361.6-.953 2.079-.745 2.535-1.894a2.372 2.372 0 0 1 .427.237 2.372 2.372 0 0 0-.427-.237c.664-.531 1.675-.624 2.01-1.577l.508-1.1.115-.075c1.282-.837 2.911-.947 3.748-1.681A22.033 22.033 0 0 1 162.021.33c1.092-.577 1.86-.554 2.552-1.525a11.023 11.023 0 0 1 2.379-2.166 2.794 2.794 0 0 1 .9-.485l-.768 1.536.768-1.536a9.275 9.275 0 0 0 1.6-.543c1.594-.4 2.934-1.7 4.655-1.652 2.327-2.368 5.544-1.23 8.293-1.952a31.709 31.709 0 0 1 7.663-.6l6.97.2C211.46-3.961 220.238-3.579 232.648 8c-.439.087-.872.2-1.305.329a14.347 14.347 0 0 1 1.969 2.35c.514.214 1.028.427 1.542.647 1.092.924 1.461 2.581 3.043 3.015 1.351 3.765 3.852 6.993 5.013 10.845-.549 1.039.012 1.779.67 2.489l.058.052.144-.312a100.137 100.137 0 0 0 3.718 14.951.979.979 0 0 0 .352 1.253 1.747 1.747 0 0 1-.254.422c-.7-.035-.2 1.045-.56 1.467a4.9 4.9 0 0 1-.012 2.674 9.987 9.987 0 0 1 .173 1.068l.647 2.35a2.582 2.582 0 0 1-.173 2.512l-.52 1.126c-.271.572-.543 1.143-.808 1.715l-.087.173a3.241 3.241 0 0 0 .6.751 132.955 132.955 0 0 0-4.476 14.091 16.715 16.715 0 0 1-1.553 1.588c-1.617 3.794-3.973 7.2-5.642 10.949-.133.295-.4.595-.56.9-3.349 3.049-7.473 5.042-10.632 8.125a.543.543 0 0 0-.081-.15l.514-.375-.514.375c-1.086 1.034-2.166 2.073-3.251 3.113l-1.8.589a3.426 3.426 0 0 1-2.437.474 8.963 8.963 0 0 1-1.219.855 15.216 15.216 0 0 0-1.727.739l-.9.427a215.751 215.751 0 0 1-39.916-5.877c-8.483-2.067-17.972-6.11-27.344-11.2-1.374-1.819-2.708-3.679-4.123-5.475a14.986 14.986 0 0 1-1.784-3.442c-1.352-3.064-1.313-6.583-3.113-9.411a16.662 16.662 0 0 1-2.657-8.628z" transform="translate(-10.024 29.767)"/>
                    <g id="Path_14455" data-name="Path 14455" style="opacity:.32;stroke-miterlimit:10;fill:none">
                        <path class="cls-8" d="M112.316-10.6c0 .156-.006.312 0 .474.249 8.366 12.324 10.405 22.927 16.688s55.641 39.7 71.338 55.838 45.229 35.423 67.694 40.9c26.628 6.485 57.928 8.6 73.751 2.114s14.732-16.5 14.732-16.5a15.817 15.817 0 0 0-.474-2.914 22.446 22.446 0 0 1 2.223 7.865s.393 8.374-14.732 16.5c-25.225 13.566-46.754 16.935-73.375 10.442-22.464-5.475-43.774-17.538-67.9-47.591-14.154-17.637-60.914-55.41-71.517-61.693s-25.1-9.067-25.346-17.434a12.086 12.086 0 0 1 .679-4.689z" transform="translate(-111.634 20.174)"/>
                        <path class="cls-9" d="M113.082-4.631c.46 1.694 1.738 3.238 3.931 4.777 2.664 1.869 6.322 3.487 10.195 5.2 3.498 1.547 7.115 3.147 10.415 5.104 5.563 3.296 20.111 14.528 34.593 26.707 7.957 6.691 15.386 13.245 21.485 18.952 7.121 6.664 12.429 12.157 15.775 16.326 11.456 14.272 22.672 24.987 34.29 32.757 5.35 3.578 10.725 6.505 16.43 8.949 5.225 2.238 10.621 4.022 16.499 5.454 8.715 2.125 16.736 3.158 24.522 3.158 8.01 0 15.758-1.095 23.687-3.348 7.747-2.201 15.69-5.517 24.28-10.138 3.286-1.766 6.072-3.682 8.283-5.694 1.752-1.595 3.146-3.251 4.143-4.923 1.647-2.761 1.651-4.655 1.65-4.74v-.005c0-.007-.006-.15-.035-.414-.206.57-.465 1.175-.788 1.804-1.062 2.066-2.614 3.997-4.612 5.74-2.451 2.137-5.589 3.998-9.326 5.53-3.325 1.364-7.41 2.398-12.143 3.073-4.454.635-9.502.957-15.004.957-7.243 0-15.118-.547-23.407-1.626a223.757 223.757 0 0 1-23.966-4.46c-5.489-1.337-11.569-3.527-18.071-6.508-6.06-2.779-12.343-6.175-18.673-10.094-12.105-7.494-23.604-16.474-31.55-24.638-15.573-16.015-60.463-49.34-71.078-55.634-3.076-1.822-6.252-3.27-9.324-4.669-3.643-1.66-7.084-3.227-9.634-5.148-1.046-.788-1.894-1.596-2.567-2.45m-.766-5.969c0 .156-.005.312 0 .474.249 8.367 12.324 10.406 22.927 16.689 10.597 6.283 55.641 39.697 71.337 55.838 15.702 16.135 45.23 35.423 67.694 40.898 26.628 6.485 57.928 8.604 73.751 2.113 15.83-6.49 14.732-16.504 14.732-16.504s-.034-1.103-.473-2.91c2.12 4.584 2.223 7.865 2.223 7.865s.393 8.373-14.732 16.504c-25.225 13.566-46.754 16.932-73.376 10.441-22.464-5.474-43.774-17.538-67.896-47.59-14.154-17.637-60.913-55.411-71.516-61.694C126.39 5.24 111.889 2.456 111.64-5.912c-.052-1.882.19-3.43.675-4.689z" transform="translate(-111.634 20.174)"/>
                    </g>
                </g>
            </g>
        </g>
    </g>
</svg>
