<svg xmlns="http://www.w3.org/2000/svg" width="1176" height="1185.428" viewBox="0 0 1176 1185.428">
    <defs>
        <style>
            .cls-1{opacity:.502}.cls-2,.cls-3,.cls-8{fill:#400000}.cls-2,.cls-7{opacity:.25}.cls-3{opacity:.36}.cls-4,.cls-6{fill:none;stroke-miterlimit:10}.cls-4,.cls-5{opacity:.32}.cls-8{opacity:.496}.cls-10,.cls-9{stroke:none}.cls-10{fill:#400000}
        </style>
    </defs>
    <g id="Group_23333" data-name="Group 23333" transform="translate(-64 -1321.016)">
        <g id="Group_23203" data-name="Group 23203" class="cls-1" transform="translate(207.511 1203.073)">
            <path id="Path_14459" data-name="Path 14459" class="cls-2" d="M790.828 155.4a62.612 62.612 0 0 0-6.214 4.763c1.155 19.52-5.47 39.569-13.308 55.965 15.563-7.716 34.642-8.9 36.64 23.663 29.09 14.089 21.172 31.1 8.333 42.56 16 0 34.181 2.059 50.007 9.008a65.016 65.016 0 0 0 11.575-6.118c6.353-4.258 17.276-12.374 25.566-22.682 6.814-8.472 11.852-18.426 11.116-28.941-1.05-15.027-13.849-28.589-38.041-40.307l-1.083-.524-.074-1.2c-1.645-26.833-9.326-43.824-22.829-50.506-6.976-3.452-26.951-8.966-61.688 14.319zm105.532 56.152 1.389 1.266a41.365 41.365 0 0 1 9.284 12 30.052 30.052 0 0 1 3.147 15.13 38.227 38.227 0 0 1-4.308 14.72 92.026 92.026 0 0 1-1.9 3.288c-.707 1.041-1.357 2.125-2.112 3.126a58.574 58.574 0 0 1-4.748 5.794 92.266 92.266 0 0 1-23.267 18.039 139.744 139.744 0 0 0 20.844-20.122 63.159 63.159 0 0 0 7.716-11.873 35.293 35.293 0 0 0 3.671-13.211c.063-.564.013-1.13.027-1.7-.017-.566.036-1.134-.032-1.7l-.183-1.685c-.034-.282-.055-.564-.095-.844l-.183-.829-.349-1.662c-.118-.553-.341-1.081-.5-1.624-.185-.539-.336-1.088-.545-1.618l-.7-1.567a23.593 23.593 0 0 0-1.584-3.065 27.115 27.115 0 0 0-1.9-2.916 30.813 30.813 0 0 0-2.167-2.76c-.379-.45-.73-.924-1.128-1.359l-1.231-1.279a75.23 75.23 0 0 0-10.918-9.3c-1.914-1.481-3.982-2.745-6-4.106-.995-.7-2.062-1.29-3.1-1.933s-2.079-1.279-3.112-1.942c2.259.924 4.55 1.818 6.761 2.878 2.2 1.077 4.422 2.146 6.542 3.408l1.6.93.8.469.774.511 3.093 2.066c1.024.7 1.973 1.513 2.962 2.272.483.411 1.001.762 1.453 1.198z" transform="translate(117.874 22.051)"/>
            <path id="Path_14460" data-name="Path 14460" class="cls-3" d="M877.166 212.285c-2-32.565-21.077-31.379-36.64-23.663a200.432 200.432 0 0 1-5.914 11.4 234.134 234.134 0 0 1-7.491 12.422 51.518 51.518 0 0 0 2.026-11.284 35.83 35.83 0 0 0-.812-10.287c-4.416-18.864-17.7-42.714-45.539-16.3-33.651-10.384-37.528 11.728-34.526 30.018q2.433 2.149 4.672 4.254a250.358 250.358 0 0 1 22.449 24.243 77.675 77.675 0 0 0-14.166-9.974 41.317 41.317 0 0 0-18.746-5.335c-19.373-.269-45.722 6.867-26.81 40.257-19.832 32.852 6.311 40.715 25.682 40.985a35.774 35.774 0 0 0 10.22-1.414 51.341 51.341 0 0 0 10.59-4.4 233.314 233.314 0 0 1-10.529 9.984 198.832 198.832 0 0 1-9.862 8.217c-4.2 16.855-1.269 35.746 30.971 30.714 20 25.394 34.915 14.011 43.355-.987-.938-4.281-1.7-8.438-2.3-12.364a249.678 249.678 0 0 1-2.745-32.41 82.308 82.308 0 0 0 5.289 19.1c2.722 6.359 6.511 12.183 11.777 16.417 15.1 12.145 40.252 22.752 45.916-15.2 35.858-13.668 20.1-35.965 5-48.108-5.266-4.235-11.766-6.686-18.561-7.981a82.273 82.273 0 0 0-19.79-1.071 249.7 249.7 0 0 1 32.246-4.268c3.963-.25 8.186-.4 12.57-.4 12.84-11.466 20.758-28.477-8.332-42.565zm-83.147 9.254-7.384-10.592a20.641 20.641 0 0 1-3.547-14.328 22.466 22.466 0 0 1 5.036-11.185 37.625 37.625 0 0 1 6.618-6.307 2.055 2.055 0 0 1 2.508.019c6.81 5.318 10.647 11.259 11.406 17.652a20.629 20.629 0 0 1-3.749 14.278l-7.531 10.489a2.056 2.056 0 0 1-3.357-.025zM787.3 294.96l4.075 12.254a20.646 20.646 0 0 1-.667 14.747c-2.625 5.88-8.055 10.409-16.138 13.464a2.061 2.061 0 0 1-2.4-.728c-5.02-7.035-7.014-13.819-5.926-20.166a20.282 20.282 0 0 1 4.239-9.277 18.94 18.94 0 0 1 3.408-3.349l10.2-7.918a2.054 2.054 0 0 1 3.213.974zm-42.929-18.241c-6.408.631-13.032-1.843-19.689-7.355a2.056 2.056 0 0 1-.555-2.447 37.539 37.539 0 0 1 4.74-7.815 22.479 22.479 0 0 1 9.845-7.317 20.637 20.637 0 0 1 14.755.389l11.932 4.942a2.056 2.056 0 0 1 .743 3.273L757.518 270a20.645 20.645 0 0 1-13.142 6.719zm110.029 7.763c4.475 4.63 6.652 11.358 6.467 20a2.054 2.054 0 0 1-1.571 1.954c-8.4 2.032-15.437 1.351-20.919-2.028a20.654 20.654 0 0 1-8.861-11.806l-3.541-12.42a2.058 2.058 0 0 1 2.106-2.615l12.889.8a20.63 20.63 0 0 1 13.43 6.115zm-31.516-10.527a26.121 26.121 0 1 1-3.984-36.725 26.152 26.152 0 0 1 3.984 36.725zm38.109-39.377a20.629 20.629 0 0 1-14.259 3.812l-12.843-1.351a2.059 2.059 0 0 1-1.641-2.931l5.55-11.659a18.934 18.934 0 0 1 2.539-4.048 20.264 20.264 0 0 1 8.154-6.128c5.966-2.423 13.02-1.931 20.966 1.464a2.058 2.058 0 0 1 1.226 2.188c-1.25 8.555-4.513 14.828-9.692 18.653z" transform="translate(48.665 49.545)"/>
            <path id="Path_14461" data-name="Path 14461" class="cls-2" d="M791.25 224.128c27.836-26.416 41.123-2.567 45.539 16.3a35.823 35.823 0 0 1 .812 10.287c13.06-22.447 25.291-52.363 19.051-79.017-3.177-13.563-12.978-45.836-35.361-52.534-14.433-4.321-31.638 2.872-51.137 21.376l-.873.829-1.149-.356c-25.686-7.925-44.3-6.732-55.313 3.545-5.69 5.308-17.9 22.055-8.364 62.773a68.982 68.982 0 0 0 7.918 19.289c16.992 5.905 32.408 16.975 44.35 27.529-3.001-18.293.877-40.405 34.527-30.021zm-89.513-43.442a66.43 66.43 0 0 1 1.881-15.429 39.7 39.7 0 0 1 6.8-14.244 30.573 30.573 0 0 1 12.748-9.61 44.259 44.259 0 0 1 15.561-3.1 35.709 35.709 0 0 1 3.942 0c1.309.078 2.623.109 3.925.227l3.888.459.972.116.959.17 1.921.343c2.575.4 5.083 1.048 7.607 1.635 1.271.269 2.5.671 3.745 1.014l2.577.74 1.98-1.8c.964-.86 1.885-1.765 2.905-2.571 2-1.647 3.964-3.339 6.093-4.841l1.567-1.161.785-.579.82-.534 3.28-2.137c1.113-.684 2.278-1.3 3.414-1.944a36.294 36.294 0 0 1 3.534-1.748 44.25 44.25 0 0 1 15.319-4.13 30.605 30.605 0 0 1 15.687 2.954 39.591 39.591 0 0 1 12.416 9.742 66.411 66.411 0 0 1 8.533 12.988 111.3 111.3 0 0 1 9.586 29.115 125.616 125.616 0 0 0-11.354-28.16 64.913 64.913 0 0 0-8.758-12.147 37.741 37.741 0 0 0-11.764-8.636 12.813 12.813 0 0 0-1.681-.665c-.568-.2-1.13-.417-1.7-.6l-1.75-.421-.875-.215a8.975 8.975 0 0 0-.89-.133 24.879 24.879 0 0 0-3.578-.334l-1.8-.048-1.8.147a40.584 40.584 0 0 0-13.95 4.064c-1.109.539-2.228 1.046-3.29 1.691-1.069.623-2.163 1.2-3.215 1.858l-3.113 2.055-.776.513-.751.562-1.5 1.123c-2.03 1.452-3.919 3.1-5.844 4.706-.978.78-1.872 1.67-2.8 2.512l-2.771 2.556-.881.814-1.155-.337-3.616-1.066c-1.208-.341-2.4-.743-3.627-1.008-2.436-.583-4.862-1.224-7.325-1.622l-1.841-.343-.921-.17-.926-.114-3.7-.461a71.557 71.557 0 0 0-7.4-.29 40.6 40.6 0 0 0-14.305 2.548l-1.679.669-1.59.841a24.382 24.382 0 0 0-3.057 1.891 8.507 8.507 0 0 0-.739.513l-.688.578-1.382 1.157c-.429.419-.837.863-1.258 1.294a13.063 13.063 0 0 0-1.21 1.342 37.649 37.649 0 0 0-6.706 12.957 64.754 64.754 0 0 0-2.457 14.772 125.708 125.708 0 0 0 2.32 30.274 111.293 111.293 0 0 1-4.342-30.342z" transform="translate(40.214)"/>
            <path id="Path_14462" data-name="Path 14462" class="cls-2" d="M788.6 264.177c-32.239 5.032-35.17-13.859-30.971-30.714-14.333 11.173-32.494 21.942-51.81 25a62.851 62.851 0 0 0-3.32 7.092c-5.1 12.965-15.368 45.091-.757 63.322 9.423 11.756 27.666 15.616 54.225 11.47l1.188-.185.745.945c16.632 21.119 32.622 30.714 47.527 28.516 7.7-1.134 27.26-7.975 42.556-46.9a65.206 65.206 0 0 0 3.492-12.618c-10.178-13.969-16.089-31.284-19.52-46.915-8.437 14.998-23.355 26.381-43.355.987zm45.013 81.984a58.808 58.808 0 0 1-4.641 5.88c-.818.953-1.735 1.82-2.6 2.735-.913.869-1.851 1.721-2.8 2.558a38.277 38.277 0 0 1-13.453 7.365 30.038 30.038 0 0 1-15.456.168 41.308 41.308 0 0 1-13.712-6.494l-1.536-1.083c-.52-.349-.976-.778-1.466-1.163-.955-.8-1.95-1.557-2.855-2.407l-2.68-2.579-.665-.644-.629-.682-1.254-1.363c-1.687-1.8-3.206-3.738-4.731-5.661s-2.874-3.978-4.26-5.987c.869.867 1.71 1.752 2.564 2.623s1.651 1.788 2.552 2.611c1.763 1.679 3.44 3.427 5.3 4.979a75.287 75.287 0 0 0 11.421 8.672l1.512.926c.511.3 1.048.539 1.57.81a30.123 30.123 0 0 0 3.162 1.527 27.47 27.47 0 0 0 3.254 1.233 24.2 24.2 0 0 0 3.332.89l1.681.345c.564.09 1.132.12 1.7.185.566.044 1.13.149 1.7.145l1.7-.015h.85c.28-.021.562-.059.841-.088l1.685-.183c.564-.055 1.109-.227 1.664-.332.549-.135 1.113-.206 1.651-.389a35.3 35.3 0 0 0 12.117-6.421 63.055 63.055 0 0 0 9.94-10.081 139.454 139.454 0 0 0 15.187-24.674 92.267 92.267 0 0 1-12.642 26.594z" transform="translate(32.807 127.479)"/>
            <path id="Path_14463" data-name="Path 14463" class="cls-2" d="M790.026 291.672c-19.371-.269-45.514-8.133-25.682-40.984-18.912-33.39 7.437-40.526 26.81-40.257a41.316 41.316 0 0 1 18.746 5.335c-18.654-20.057-48.743-45.813-80.576-46.254-13.079-.181-43.57 1.327-57.1 18.149a29.544 29.544 0 0 0-2.417 3.482c-3.984 6.73-5.133 14.934-3.469 24.54a40.831 40.831 0 0 1 .368-10.969 30.6 30.6 0 0 1 6.654-14.514 39.67 39.67 0 0 1 12.454-9.7 66.454 66.454 0 0 1 14.665-5.146 111.316 111.316 0 0 1 30.571-2.268 125.709 125.709 0 0 0-30.068 4.224 64.826 64.826 0 0 0-13.9 5.568 37.637 37.637 0 0 0-11.219 9.328 12.864 12.864 0 0 0-1.05 1.47c-.33.5-.677 1-1 1.5l-.833 1.6-.419.8c-.143.263-.225.555-.343.831a24.3 24.3 0 0 0-1.191 3.391l-.482 1.736-.292 1.784a40.548 40.548 0 0 0 .578 14.516 71.166 71.166 0 0 0 1.87 7.169l1.243 3.517.309.879.364.863.73 1.725c.915 2.32 2.064 4.552 3.154 6.808.522 1.136 1.172 2.219 1.763 3.326l1.809 3.3.576 1.056-.606 1.037-1.9 3.252c-.623 1.09-1.3 2.152-1.853 3.275-1.153 2.224-2.363 4.424-3.343 6.717l-.776 1.7-.387.852-.335.871-1.342 3.482c-.414 1.168-.745 2.36-1.123 3.538-.4 1.176-.661 2.377-.947 3.574a40.531 40.531 0 0 0-.98 14.5l.242 1.792.433 1.748a24.638 24.638 0 0 0 1.1 3.423 8.4 8.4 0 0 0 .32.841l.4.808.789 1.62c.3.52.635 1.02.953 1.534a12.805 12.805 0 0 0 1.01 1.5 37.738 37.738 0 0 0 10.956 9.639 64.964 64.964 0 0 0 13.74 5.958 125.714 125.714 0 0 0 29.94 5.051 111.308 111.308 0 0 1-30.5-3.122 66.3 66.3 0 0 1-14.513-5.55 39.618 39.618 0 0 1-12.179-10.037 30.6 30.6 0 0 1-6.25-14.69 44.276 44.276 0 0 1 .749-15.847 36.6 36.6 0 0 1 .949-3.827c.391-1.25.738-2.52 1.17-3.753l1.382-3.663.347-.915.4-.89.8-1.782c1.01-2.4 2.242-4.681 3.423-6.989.568-1.168 1.254-2.262 1.887-3.389l1.338-2.32v-.008c-13.689 22.823-16.947 41.035-9.677 54.129 3.778 6.8 17.082 22.693 58.9 23.273 27.367.381 53.966-17.98 73.091-35.551a35.774 35.774 0 0 1-10.231 1.414z" transform="translate(0 56.892)"/>
            <path id="Path_14464" data-name="Path 14464" class="cls-2" d="M817.5 266.219c-5.663 37.955-30.817 27.348-45.916 15.2-5.266-4.235-9.054-10.058-11.777-16.417 2.659 27.066 10.811 63.808 34.716 83.033 32.586 26.208 52.965 22.447 60.215 19.613 14.03-5.484 23.156-21.746 27.123-48.335l.177-1.189 1.123-.429c25.118-9.576 39.047-21.975 41.4-36.857 1.214-7.689.517-28.4-32.069-54.608-23.9-19.226-61.538-19.31-88.545-16.1 6.8 1.3 13.3 3.747 18.561 7.981 15.092 12.143 30.85 34.44-5.008 48.108zm96.75 21.574a26.615 26.615 0 0 0 1.883-8.833 33.91 33.91 0 0 0-.97-9.04 45.949 45.949 0 0 0-3.28-8.657 67.067 67.067 0 0 0-4.782-8.085c-1.8-2.592-3.751-5.085-5.8-7.5a128.728 128.728 0 0 0-13.546-13.487 66.819 66.819 0 0 0-15.919-10.342 102.706 102.706 0 0 0-18.2-6.427 80.933 80.933 0 0 1 18.986 4.567 69.181 69.181 0 0 1 8.951 4.17 60.717 60.717 0 0 1 8.217 5.554c1.3 1 2.556 2.051 3.82 3.1.631.526 1.233 1.083 1.849 1.624s1.229 1.09 1.822 1.66c2.426 2.215 4.71 4.59 6.944 7.018a92.084 92.084 0 0 1 6.206 7.748 69.588 69.588 0 0 1 5.137 8.594 49.911 49.911 0 0 1 3.488 9.509 35.681 35.681 0 0 1 .951 10.214 30.36 30.36 0 0 1-2.438 9.995 33.29 33.29 0 0 1-5.425 8.6 55.835 55.835 0 0 1-15.626 12.151 101.62 101.62 0 0 1-18.031 7.472 139.516 139.516 0 0 0 17-9.2 58.457 58.457 0 0 0 14.177-12.446 7.309 7.309 0 0 0 .692-.934l.65-.959a16.889 16.889 0 0 0 1.235-1.95l1.107-2.013c.325-.696.599-1.405.902-2.103z" transform="translate(105.184 99.991)"/>
            <g id="Path_14465" data-name="Path 14465" class="cls-4">
                <path class="cls-9" d="M787.3 237.947a26.121 26.121 0 1 0-36.725 3.984 26.15 26.15 0 0 0 36.725-3.984z" transform="translate(84.251 85.554)"/>
                <path class="cls-10" d="M766.918 246.439c3.644 0 7.308-.813 10.596-2.35a24.578 24.578 0 0 0 8.812-6.924c8.595-10.687 6.893-26.374-3.795-34.97a24.732 24.732 0 0 0-15.562-5.48c-3.644 0-7.308.812-10.596 2.35a24.58 24.58 0 0 0-8.813 6.924c-8.595 10.687-6.893 26.374 3.795 34.97a24.734 24.734 0 0 0 15.563 5.48m0 1.247a26 26 0 0 1-16.345-5.755c-11.223-9.027-13.011-25.5-3.985-36.724 9.027-11.223 25.502-13.011 36.725-3.984 11.223 9.027 13.011 25.5 3.985 36.724-5.154 6.408-12.735 9.74-20.38 9.739z" transform="translate(84.251 85.554)"/>
            </g>
            <g id="Group_23202" data-name="Group 23202" class="cls-5" transform="translate(772.607 228.254)">
                <g id="Path_14466" data-name="Path 14466" class="cls-6">
                    <path class="cls-9" d="M797.75 246.247a2.054 2.054 0 0 0 1.571-1.954c.185-8.64-1.992-15.368-6.467-20a20.63 20.63 0 0 0-13.43-6.122l-12.889-.8a2.058 2.058 0 0 0-2.106 2.615l3.541 12.42a20.653 20.653 0 0 0 8.861 11.806c5.482 3.388 12.519 4.068 20.919 2.035z" transform="translate(-662.397 -118.522)"/>
                    <path class="cls-10" d="M788.89 246.142c2.647 0 5.53-.372 8.568-1.107a.807.807 0 0 0 .617-.769c.177-8.293-1.88-14.72-6.117-19.104-2.183-2.258-4.868-3.901-7.981-4.884-2.421-.764-4.245-.849-4.586-.858l-.043-.002-12.891-.795a.812.812 0 0 0-.828 1.028l3.551 12.458c.18.718 1.947 7.13 8.306 11.048 3.213 1.98 7.05 2.985 11.403 2.985m0 1.248c-4.596 0-8.63-1.059-12.058-3.17-6.8-4.191-8.67-11.045-8.86-11.807l-3.541-12.42a2.06 2.06 0 0 1 2.106-2.615l12.889.795c.785.021 7.878.379 13.43 6.122 4.475 4.63 6.652 11.358 6.467 19.998a2.054 2.054 0 0 1-1.572 1.954c-3.149.762-6.106 1.143-8.861 1.143z" transform="translate(-662.397 -118.522)"/>
                </g>
                <g id="Path_14467" data-name="Path 14467" class="cls-6">
                    <path class="cls-9" d="m773.026 197.309-5.55 11.661a2.057 2.057 0 0 0 1.641 2.928l12.843 1.351a20.629 20.629 0 0 0 14.259-3.812c5.179-3.825 8.442-10.1 9.692-18.652a2.058 2.058 0 0 0-1.226-2.188c-7.946-3.4-15-3.888-20.966-1.464a20.264 20.264 0 0 0-8.154 6.128 18.933 18.933 0 0 0-2.539 4.048z" transform="translate(-659.169 -153.567)"/>
                    <path class="cls-10" d="M791.714 186.869c-2.674 0-5.205.478-7.525 1.42-2.977 1.208-5.551 3.144-7.651 5.754-1.52 1.89-2.238 3.465-2.367 3.762l-.018.04-5.551 11.664a.813.813 0 0 0 .646 1.149l12.887 1.355c.183.026.86.11 1.89.11 2.412 0 7.106-.48 11.454-3.69 4.904-3.622 8-9.62 9.198-17.828a.81.81 0 0 0-.482-.86c-4.465-1.908-8.664-2.876-12.48-2.876h-.001m.001-1.248c3.993 0 8.33.993 12.97 2.976a2.058 2.058 0 0 1 1.227 2.188c-1.25 8.554-4.513 14.827-9.692 18.652-6.425 4.743-13.483 3.92-14.26 3.812l-12.842-1.351a2.061 2.061 0 0 1-1.578-1.041 2.049 2.049 0 0 1-.063-1.887l5.55-11.661c.15-.35.931-2.05 2.539-4.048 1.706-2.12 4.344-4.582 8.154-6.128 2.482-1.008 5.15-1.512 7.995-1.512z" transform="translate(-659.169 -153.567)"/>
                </g>
                <g id="Path_14468" data-name="Path 14468" class="cls-6">
                    <path class="cls-9" d="m758.381 213.24 7.531-10.489a20.629 20.629 0 0 0 3.749-14.278c-.759-6.393-4.6-12.334-11.406-17.652a2.055 2.055 0 0 0-2.508-.019 37.625 37.625 0 0 0-6.618 6.307 22.466 22.466 0 0 0-5.036 11.185 20.64 20.64 0 0 0 3.547 14.328l7.384 10.592a2.056 2.056 0 0 0 3.357.025z" transform="translate(-684.946 -170.385)"/>
                    <path class="cls-10" d="M756.71 212.849a.803.803 0 0 0 .658-.336l7.557-10.525c.209-.27 1.296-1.734 2.235-4.095 1.207-3.034 1.632-6.154 1.262-9.273-.719-6.053-4.398-11.71-10.936-16.817a.802.802 0 0 0-.984-.007c-2.552 1.937-4.706 3.988-6.401 6.095-2.677 3.326-4.282 6.881-4.772 10.568-.985 7.413 2.868 12.825 3.31 13.417l.024.033 7.386 10.595a.804.804 0 0 0 .655.345h.005m0 1.247h-.013a2.048 2.048 0 0 1-1.672-.881l-7.384-10.592c-.472-.631-4.6-6.412-3.547-14.329.521-3.93 2.209-7.672 5.036-11.185 1.765-2.194 3.972-4.298 6.618-6.307a2.055 2.055 0 0 1 2.508.019c6.81 5.318 10.647 11.259 11.406 17.652.94 7.933-3.269 13.657-3.749 14.278l-7.531 10.49a2.05 2.05 0 0 1-1.672.855z" transform="translate(-684.946 -170.385)"/>
                </g>
                <g id="Path_14469" data-name="Path 14469" class="cls-6">
                    <path class="cls-9" d="m749.464 223.955 8.629-9.608a2.056 2.056 0 0 0-.743-3.273l-11.932-4.939a20.62 20.62 0 0 0-14.755-.391 22.48 22.48 0 0 0-9.845 7.317 37.542 37.542 0 0 0-4.74 7.815 2.055 2.055 0 0 0 .555 2.447c6.656 5.512 13.281 7.986 19.689 7.355a20.645 20.645 0 0 0 13.142-6.723z" transform="translate(-715.888 -132.666)"/>
                    <path class="cls-10" d="M734.36 229.525c.612 0 1.231-.03 1.84-.09 3.124-.308 6.08-1.391 8.785-3.22 2.098-1.42 3.303-2.8 3.523-3.062l.027-.032 8.63-9.608a.806.806 0 0 0-.292-1.287l-11.974-4.957c-.327-.15-3.317-1.462-7.446-1.462-2.197 0-4.338.373-6.365 1.109-3.494 1.268-6.623 3.599-9.299 6.926-1.697 2.11-3.237 4.652-4.579 7.556a.81.81 0 0 0 .218.963c5.741 4.754 11.438 7.164 16.931 7.164m0 1.248c-5.794 0-11.747-2.5-17.726-7.451a2.055 2.055 0 0 1-.555-2.447c1.392-3.015 2.976-5.623 4.74-7.815 2.827-3.516 6.119-5.964 9.845-7.317 7.508-2.726 14.042.065 14.755.391l11.932 4.94c.617.254 1.071.793 1.218 1.445a2.048 2.048 0 0 1-.475 1.828l-8.63 9.608c-.505.602-5.194 5.939-13.142 6.721-.652.064-1.306.097-1.962.097z" transform="translate(-715.888 -132.666)"/>
                </g>
                <g id="Path_14470" data-name="Path 14470" class="cls-6">
                    <path class="cls-9" d="M744.477 266.848c8.082-3.055 13.512-7.584 16.138-13.464a20.646 20.646 0 0 0 .667-14.747l-4.075-12.254a2.054 2.054 0 0 0-3.213-.974l-10.2 7.918a18.938 18.938 0 0 0-3.408 3.349 20.284 20.284 0 0 0-4.239 9.277c-1.088 6.347.907 13.131 5.926 20.166a2.061 2.061 0 0 0 2.404.729z" transform="translate(-693.844 -110.131)"/>
                    <path class="cls-10" d="M743.75 265.734a.802.802 0 0 0 .286-.053c7.76-2.933 12.955-7.24 15.44-12.805 3.047-6.826.89-13.113.635-13.807l-.014-.038-4.074-12.254a.814.814 0 0 0-.53-.519.82.82 0 0 0-.734.137l-10.234 7.945c-.16.115-1.61 1.183-3.166 3.119-2.097 2.606-3.436 5.535-3.981 8.706-1.03 6.006.892 12.476 5.71 19.229.153.213.4.34.663.34m0 1.247c-.651 0-1.282-.31-1.677-.86-5.02-7.035-7.014-13.82-5.926-20.167.697-4.052 2.533-7.157 4.24-9.277 1.606-1.999 3.098-3.126 3.407-3.35l10.199-7.918a2.057 2.057 0 0 1 3.212.974l4.075 12.254c.272.737 2.59 7.454-.667 14.748-2.625 5.88-8.055 10.409-16.137 13.463a2.05 2.05 0 0 1-.726.133z" transform="translate(-693.844 -110.131)"/>
                </g>
            </g>
        </g>
        <g id="Group_23204" data-name="Group 23204" class="cls-1" transform="translate(-600.489 1811.057)">
            <path id="Path_14459-2" data-name="Path 14459" class="cls-2" d="M801.015 164.519a95.282 95.282 0 0 0-9.457 7.248c1.758 29.706-8.324 60.216-20.252 85.168 23.684-11.743 52.718-13.549 55.76 36.01 44.269 21.44 32.219 47.327 12.681 64.768 24.35 0 52.017 3.134 76.1 13.709a98.938 98.938 0 0 0 17.614-9.31c9.668-6.48 26.29-18.831 38.907-34.518 10.37-12.892 18.037-28.041 16.916-44.042-1.6-22.868-21.075-43.508-57.892-61.34l-1.649-.8-.112-1.825c-2.5-40.834-14.192-66.692-34.742-76.86-10.614-5.251-41.011-13.642-93.874 21.792zm160.6 85.453 2.113 1.927a62.949 62.949 0 0 1 14.128 18.264 45.732 45.732 0 0 1 4.789 23.025 58.175 58.175 0 0 1-6.557 22.4 140 140 0 0 1-2.891 5c-1.076 1.585-2.065 3.233-3.214 4.757a89.151 89.151 0 0 1-7.226 8.817 140.408 140.408 0 0 1-35.408 27.452C938.9 352.258 949.9 342.308 959.071 331a96.119 96.119 0 0 0 11.743-18.069 53.709 53.709 0 0 0 5.587-20.105c.1-.858.019-1.719.042-2.58-.025-.861.054-1.726-.048-2.58l-.279-2.564c-.051-.429-.083-.858-.144-1.284l-.279-1.261-.532-2.529c-.179-.842-.518-1.646-.768-2.472-.282-.82-.512-1.655-.829-2.462l-1.063-2.385a35.912 35.912 0 0 0-2.411-4.664 41.271 41.271 0 0 0-2.89-4.445 46.9 46.9 0 0 0-3.3-4.2c-.576-.685-1.111-1.405-1.716-2.068l-1.873-1.947a114.48 114.48 0 0 0-16.615-14.147c-2.913-2.254-6.06-4.178-9.13-6.249-1.514-1.069-3.137-1.962-4.713-2.942s-3.163-1.946-4.735-2.955c3.438 1.405 6.925 2.766 10.289 4.38 3.355 1.639 6.729 3.266 9.957 5.186l2.436 1.415 1.217.714 1.178.778 4.706 3.144c1.559 1.066 3 2.3 4.507 3.457.732.609 1.519 1.143 2.207 1.806z" transform="translate(235.095 43.983)"/>
            <path id="Path_14460-2" data-name="Path 14460" class="cls-3" d="M965.131 238.084c-3.042-49.558-32.076-47.753-55.76-36.01a302.929 302.929 0 0 1-9 17.342 353.476 353.476 0 0 1-11.4 18.9 78.4 78.4 0 0 0 3.083-17.173 54.53 54.53 0 0 0-1.236-15.655c-6.72-28.707-26.94-65-69.3-24.8-51.211-15.8-57.111 17.848-52.542 45.681q3.7 3.27 7.11 6.473a381.006 381.006 0 0 1 34.163 36.893 118.2 118.2 0 0 0-21.559-15.178c-8.951-4.78-18.607-7.981-28.528-8.119-29.482-.41-69.58 10.45-40.8 61.263-30.18 49.994 9.6 61.961 39.083 62.371A54.442 54.442 0 0 0 774 367.925a78.126 78.126 0 0 0 16.116-6.694 354.596 354.596 0 0 1-16.023 15.194 298.891 298.891 0 0 1-15.008 12.5c-6.39 25.65-1.931 54.4 47.132 46.741 30.433 38.645 53.134 21.322 65.978-1.5a301.767 301.767 0 0 1-3.5-18.815 379.951 379.951 0 0 1-4.178-49.321 125.261 125.261 0 0 0 8.048 29.066c4.143 9.678 9.909 18.54 17.922 24.984 22.977 18.482 61.257 34.624 69.875-23.137 54.568-20.8 30.593-54.732 7.616-73.211-8.014-6.444-17.906-10.174-28.246-12.146a125.2 125.2 0 0 0-30.116-1.629 379.982 379.982 0 0 1 49.072-6.5 304.193 304.193 0 0 1 19.129-.611c19.533-17.435 31.583-43.322-12.686-64.762zM838.6 252.167l-11.237-16.119a31.411 31.411 0 0 1-5.4-21.805 34.191 34.191 0 0 1 7.664-17.022 57.261 57.261 0 0 1 10.072-9.6 3.127 3.127 0 0 1 3.816.029c10.363 8.093 16.2 17.134 17.358 26.863a31.394 31.394 0 0 1-5.7 21.728l-11.461 15.962a3.129 3.129 0 0 1-5.109-.038zM828.378 363.9l6.2 18.648a31.42 31.42 0 0 1-1.014 22.442c-4 8.948-12.259 15.841-24.558 20.489a3.136 3.136 0 0 1-3.656-1.108c-7.639-10.706-10.674-21.03-9.018-30.689a30.864 30.864 0 0 1 6.451-14.118 28.823 28.823 0 0 1 5.186-5.1l15.52-12.05a3.126 3.126 0 0 1 4.889 1.482zm-65.329-27.76c-9.752.96-19.833-2.8-29.962-11.192a3.128 3.128 0 0 1-.845-3.723 57.129 57.129 0 0 1 7.213-11.893 34.21 34.21 0 0 1 14.982-11.132 31.407 31.407 0 0 1 22.455.592l18.158 7.52a3.129 3.129 0 0 1 1.13 4.981l-13.132 14.621a31.417 31.417 0 0 1-19.999 10.227zm167.436 11.813c6.809 7.046 10.123 17.285 9.841 30.433a3.126 3.126 0 0 1-2.391 2.974c-12.784 3.093-23.492 2.055-31.835-3.086a31.431 31.431 0 0 1-13.484-17.967l-5.388-18.9a3.131 3.131 0 0 1 3.2-3.979l19.615 1.21a31.4 31.4 0 0 1 20.441 9.316zm-47.961-16.02a39.751 39.751 0 1 1-6.063-55.888 39.8 39.8 0 0 1 6.063 55.889zm57.994-59.925a31.393 31.393 0 0 1-21.7 5.8l-19.545-2.055a3.133 3.133 0 0 1-2.5-4.46l8.445-17.742a28.816 28.816 0 0 1 3.864-6.16 30.838 30.838 0 0 1 12.409-9.326c9.079-3.688 19.814-2.939 31.906 2.228a3.132 3.132 0 0 1 1.866 3.33c-1.898 13.02-6.863 22.566-14.745 28.386z" transform="translate(97.057 98.814)"/>
            <path id="Path_14461-2" data-name="Path 14461" class="cls-2" d="M838.379 279.535c42.361-40.2 62.582-3.906 69.3 24.8a54.522 54.522 0 0 1 1.236 15.655c19.875-34.159 38.488-79.687 28.993-120.249-4.834-20.64-19.75-69.753-53.813-79.946-21.965-6.576-48.146 4.37-77.821 32.53l-1.328 1.261-1.748-.541c-39.09-12.06-67.41-10.245-84.176 5.394-8.66 8.077-27.235 33.564-12.729 95.528a104.984 104.984 0 0 0 12.05 29.354c25.858 8.986 49.319 25.832 67.493 41.894-4.568-27.831 1.333-61.482 52.543-45.68zm-136.222-66.11a101.09 101.09 0 0 1 2.862-23.479 60.424 60.424 0 0 1 10.353-21.677 46.526 46.526 0 0 1 19.4-14.624 67.354 67.354 0 0 1 23.681-4.719 54.343 54.343 0 0 1 6 0c1.992.118 3.992.166 5.974.346l5.916.7 1.479.176 1.46.259 2.923.522c3.918.611 7.735 1.594 11.577 2.488 1.934.41 3.8 1.021 5.7 1.543l3.922 1.127 3.012-2.747c1.466-1.309 2.869-2.686 4.421-3.912 3.044-2.507 6.032-5.081 9.272-7.367l2.385-1.767 1.194-.88 1.248-.813 4.991-3.253c1.694-1.04 3.467-1.972 5.2-2.958a55.236 55.236 0 0 1 5.378-2.66 67.34 67.34 0 0 1 23.313-6.284 46.576 46.576 0 0 1 23.873 4.495 60.25 60.25 0 0 1 18.9 14.826 101.051 101.051 0 0 1 12.985 19.766 169.366 169.366 0 0 1 14.589 44.308c-4.248-14.912-9.643-29.533-17.278-42.854a98.784 98.784 0 0 0-13.336-18.487 57.435 57.435 0 0 0-17.9-13.142 19.492 19.492 0 0 0-2.558-1.012c-.865-.3-1.719-.634-2.59-.919l-2.664-.64-1.332-.327a13.668 13.668 0 0 0-1.355-.2 37.861 37.861 0 0 0-5.446-.509l-2.74-.074-2.741.224A61.761 61.761 0 0 0 843 135.083c-1.687.82-3.391 1.591-5.007 2.574-1.626.948-3.291 1.828-4.892 2.827l-4.738 3.128-1.181.781-1.143.855-2.279 1.71c-3.09 2.209-5.964 4.722-8.894 7.162-1.489 1.188-2.849 2.542-4.264 3.822l-4.216 3.89-1.341 1.239-1.758-.512-5.5-1.61c-1.838-.519-3.659-1.13-5.519-1.533-3.707-.887-7.4-1.863-11.147-2.468l-2.8-.522-1.4-.259-1.409-.173-5.631-.7a108.9 108.9 0 0 0-11.266-.442 61.791 61.791 0 0 0-21.77 3.877l-2.555 1.018-2.42 1.281a37.106 37.106 0 0 0-4.651 2.878 12.987 12.987 0 0 0-1.124.781l-1.047.88-2.1 1.761c-.653.637-1.274 1.313-1.914 1.969a19.9 19.9 0 0 0-1.841 2.042 57.293 57.293 0 0 0-10.206 19.718 98.538 98.538 0 0 0-3.739 22.481c-.932 15.322.724 30.82 3.531 46.072a169.366 169.366 0 0 1-6.621-46.184z" transform="translate(80.204)"/>
            <path id="Path_14462-2" data-name="Path 14462" class="cls-2" d="M837.853 280.2c-49.062 7.658-53.521-21.091-47.131-46.741-21.812 17-49.45 33.391-78.845 38.043a95.684 95.684 0 0 0-5.052 10.792c-7.754 19.731-23.387 68.62-1.153 96.363 14.34 17.89 42.1 23.764 82.521 17.454l1.809-.282 1.133 1.438c25.31 32.139 49.645 46.741 72.327 43.4 11.717-1.726 41.484-12.137 64.762-71.367a99.226 99.226 0 0 0 5.314-19.2c-15.489-21.258-24.485-47.609-29.706-71.4-12.845 22.826-35.546 40.149-65.979 1.5zm68.5 124.764a89.522 89.522 0 0 1-7.062 8.948c-1.245 1.45-2.641 2.769-3.96 4.162a150.465 150.465 0 0 1-4.265 3.893 58.247 58.247 0 0 1-20.473 11.208 45.713 45.713 0 0 1-23.521.256 62.86 62.86 0 0 1-20.867-9.883l-2.337-1.649c-.791-.532-1.485-1.184-2.231-1.77-1.453-1.22-2.968-2.369-4.344-3.662l-4.078-3.925-1.012-.98-.957-1.037-1.908-2.075c-2.567-2.741-4.879-5.689-7.2-8.615-2.3-2.942-4.373-6.054-6.483-9.111 1.322 1.319 2.6 2.667 3.9 3.992s2.513 2.721 3.883 3.973c2.683 2.555 5.234 5.215 8.061 7.578a114.576 114.576 0 0 0 17.38 13.2l2.3 1.409c.778.451 1.595.82 2.389 1.233a45.851 45.851 0 0 0 4.812 2.324 41.828 41.828 0 0 0 4.953 1.876 36.822 36.822 0 0 0 5.071 1.354l2.558.525c.858.138 1.722.182 2.583.282.861.067 1.719.227 2.581.221l2.583-.022h1.294c.426-.032.855-.09 1.28-.134l2.564-.278c.858-.083 1.687-.346 2.532-.506.836-.2 1.694-.314 2.513-.592a53.715 53.715 0 0 0 18.44-9.771 95.952 95.952 0 0 0 15.127-15.341c9.086-11.388 16.446-24.254 23.111-37.55a140.41 140.41 0 0 1-19.216 40.471z" transform="translate(65.431 254.252)"/>
            <path id="Path_14463-2" data-name="Path 14463" class="cls-2" d="M855.531 355.423c-29.479-.41-69.263-12.377-39.083-62.371-28.781-50.813 11.317-61.673 40.8-61.263 9.921.138 19.577 3.339 28.528 8.119-28.387-30.523-74.177-69.718-122.622-70.39-19.9-.275-66.305 2.02-86.9 27.619a44.977 44.977 0 0 0-3.679 5.3c-6.063 10.241-7.811 22.727-5.279 37.345a62.139 62.139 0 0 1 .56-16.692 46.562 46.562 0 0 1 10.13-22.09 60.369 60.369 0 0 1 18.953-14.759 101.129 101.129 0 0 1 22.317-7.831 169.4 169.4 0 0 1 46.523-3.451c-15.495.528-30.987 2.231-45.758 6.428a98.653 98.653 0 0 0-21.152 8.474 57.275 57.275 0 0 0-17.073 14.2 19.581 19.581 0 0 0-1.6 2.238c-.5.765-1.031 1.514-1.515 2.289l-1.268 2.433-.637 1.21c-.217.4-.342.845-.522 1.265a36.987 36.987 0 0 0-1.812 5.161l-.733 2.641-.445 2.715a61.7 61.7 0 0 0 .88 22.09 108.318 108.318 0 0 0 2.846 10.911l1.892 5.353.47 1.338.554 1.313 1.111 2.625c1.393 3.531 3.141 6.928 4.8 10.36.794 1.729 1.783 3.378 2.683 5.062l2.753 5.029.877 1.607-.922 1.578-2.894 4.949c-.948 1.658-1.979 3.275-2.821 4.985-1.755 3.384-3.6 6.733-5.087 10.222l-1.181 2.593-.589 1.3-.509 1.325-2.043 5.3c-.631 1.777-1.133 3.592-1.709 5.385-.615 1.79-1.005 3.618-1.441 5.439a61.68 61.68 0 0 0-1.492 22.061l.368 2.728.659 2.661a37.506 37.506 0 0 0 1.668 5.209 12.773 12.773 0 0 0 .486 1.281l.6 1.229 1.2 2.465c.461.791.967 1.553 1.45 2.334a19.476 19.476 0 0 0 1.536 2.28 57.431 57.431 0 0 0 16.673 14.669 98.86 98.86 0 0 0 20.915 9.057c14.646 4.6 30.087 6.732 45.563 7.687a169.393 169.393 0 0 1-46.408-4.751 100.893 100.893 0 0 1-22.087-8.445 60.29 60.29 0 0 1-18.533-15.274 46.573 46.573 0 0 1-9.512-22.356 67.38 67.38 0 0 1 1.14-24.116 55.714 55.714 0 0 1 1.444-5.824c.6-1.9 1.124-3.835 1.78-5.711l2.1-5.574.528-1.393.6-1.354 1.214-2.712c1.537-3.653 3.412-7.123 5.208-10.635.864-1.777 1.908-3.442 2.872-5.157l2.036-3.531-.007-.013c-20.832 34.732-25.791 62.447-14.727 82.373 5.75 10.353 26 34.534 89.628 35.417 41.648.58 82.127-27.363 111.231-54.1a54.441 54.441 0 0 1-15.536 2.141z" transform="translate(0 113.469)"/>
            <path id="Path_14464-2" data-name="Path 14464" class="cls-2" d="M847.6 296.308c-8.618 57.761-46.9 41.619-69.875 23.137-8.013-6.444-13.779-15.306-17.922-24.984 4.047 41.19 16.453 97.1 52.831 126.361 49.59 39.884 80.6 34.159 91.635 29.847 21.351-8.346 35.238-33.093 41.276-73.556l.269-1.809 1.71-.653c38.225-14.573 59.422-33.442 63-56.089 1.847-11.7.787-43.22-48.8-83.1-36.375-29.258-93.649-29.386-134.749-24.507 10.341 1.972 20.233 5.7 28.246 12.146 22.979 18.475 46.952 52.407-7.621 73.207zm147.234 32.831A40.507 40.507 0 0 0 997.7 315.7a51.6 51.6 0 0 0-1.476-13.757 69.917 69.917 0 0 0-4.991-13.174 102.065 102.065 0 0 0-7.277-12.3c-2.734-3.944-5.708-7.738-8.829-11.42a195.911 195.911 0 0 0-20.614-20.524 101.683 101.683 0 0 0-24.225-15.738A156.3 156.3 0 0 0 902.6 219a123.165 123.165 0 0 1 28.893 6.95 105.273 105.273 0 0 1 13.622 6.345 92.39 92.39 0 0 1 12.5 8.452c1.979 1.521 3.89 3.121 5.814 4.713.961.8 1.876 1.649 2.814 2.471s1.87 1.658 2.772 2.526c3.691 3.371 7.168 6.985 10.568 10.68a140.15 140.15 0 0 1 9.444 11.791 105.878 105.878 0 0 1 7.818 13.078 75.945 75.945 0 0 1 5.308 14.47 54.3 54.3 0 0 1 1.447 15.543 46.2 46.2 0 0 1-3.711 15.21 50.664 50.664 0 0 1-8.256 13.087c-6.72 7.78-15.057 13.7-23.781 18.492a154.641 154.641 0 0 1-27.44 11.371 212.32 212.32 0 0 0 25.871-13.993 88.961 88.961 0 0 0 21.575-18.94 11.118 11.118 0 0 0 1.053-1.422l.989-1.46a25.686 25.686 0 0 0 1.879-2.968l1.684-3.064c.498-1.049.915-2.132 1.376-3.194z" transform="translate(209.783 199.424)"/>
            <g id="Path_14465-2" data-name="Path 14465" class="cls-4">
                <path class="cls-9" d="M811.543 260.113a39.751 39.751 0 1 0-55.888 6.064 39.8 39.8 0 0 0 55.888-6.064z" transform="translate(168.038 170.636)"/>
                <path class="cls-10" d="M780.53 273.687c2.814 0 5.634-.308 8.382-.915a38.666 38.666 0 0 0 8.018-2.722 38.271 38.271 0 0 0 13.641-10.718 38.163 38.163 0 0 0 7.022-13.565 38.453 38.453 0 0 0 1.235-14.716 38.455 38.455 0 0 0-4.363-14.109 38.17 38.17 0 0 0-9.767-11.744 38.286 38.286 0 0 0-11.53-6.383 38.405 38.405 0 0 0-12.561-2.1c-2.814 0-5.635.308-8.383.915a38.67 38.67 0 0 0-8.018 2.722 38.278 38.278 0 0 0-13.642 10.72c-13.306 16.542-10.67 40.826 5.873 54.133a38.291 38.291 0 0 0 11.531 6.381 38.418 38.418 0 0 0 12.561 2.1m0 1.248c-8.744 0-17.545-2.864-24.874-8.757-17.08-13.737-19.8-38.808-6.063-55.888 13.737-17.08 38.808-19.8 55.888-6.063 17.08 13.737 19.8 38.808 6.063 55.887-7.843 9.752-19.379 14.822-31.014 14.821z" transform="translate(168.038 170.636)"/>
            </g>
            <g id="Group_23202-2" data-name="Group 23202" class="cls-5" transform="translate(829.011 285.803)">
                <g id="Path_14466-2" data-name="Path 14466" class="cls-6">
                    <path class="cls-9" d="M815.178 261.314a3.126 3.126 0 0 0 2.391-2.974c.282-13.148-3.031-23.387-9.841-30.433a31.394 31.394 0 0 0-20.438-9.316l-19.615-1.21a3.131 3.131 0 0 0-3.2 3.979l5.388 18.9a31.43 31.43 0 0 0 13.484 17.966c8.339 5.143 19.048 6.18 31.831 3.088z" transform="translate(-609.196 -66.94)"/>
                    <path class="cls-10" d="M801.693 261.804c4.082 0 8.52-.573 13.192-1.703.829-.2 1.42-.935 1.437-1.788.274-12.8-2.919-22.739-9.49-29.54a28.805 28.805 0 0 0-6.317-4.924 30.73 30.73 0 0 0-6.102-2.676c-3.767-1.19-6.622-1.321-7.156-1.336l-.044-.002-19.617-1.21a1.875 1.875 0 0 0-1.581.7 1.888 1.888 0 0 0-.345 1.693l5.398 18.939c.282 1.119 3.034 11.11 12.93 17.208 4.994 3.078 10.947 4.64 17.695 4.64m0 1.247c-6.994 0-13.135-1.61-18.35-4.825-10.347-6.377-13.193-16.807-13.484-17.966l-5.389-18.901a3.134 3.134 0 0 1 3.205-3.98l19.615 1.21c1.194.032 11.99.577 20.438 9.317 6.81 7.046 10.123 17.284 9.841 30.432a3.126 3.126 0 0 1-2.391 2.975c-4.792 1.159-9.292 1.738-13.486 1.738z" transform="translate(-609.196 -66.94)"/>
                </g>
                <g id="Path_14467-2" data-name="Path 14467" class="cls-6">
                    <path class="cls-9" d="m776.027 203.407-8.445 17.746a3.131 3.131 0 0 0 2.5 4.456l19.545 2.055a31.394 31.394 0 0 0 21.7-5.8c7.882-5.82 12.847-15.367 14.749-28.384a3.132 3.132 0 0 0-1.866-3.329c-12.092-5.167-22.827-5.916-31.906-2.228a30.837 30.837 0 0 0-12.409 9.326 28.81 28.81 0 0 0-3.868 6.158z" transform="translate(-602.757 -136.842)"/>
                    <path class="cls-10" d="M804.465 186.869c-4.153 0-8.088.743-11.696 2.209a28.77 28.77 0 0 0-7.097 4.155 30.848 30.848 0 0 0-4.81 4.796c-2.365 2.942-3.49 5.41-3.69 5.874l-.019.04-8.447 17.75c-.262.545-.24 1.189.06 1.722a1.89 1.89 0 0 0 1.443.954l19.588 2.06c.289.041 1.356.174 2.969.174 1.826 0 4.679-.178 7.902-1.024 3.628-.953 6.963-2.54 9.913-4.719 7.61-5.618 12.405-14.891 14.256-27.56a1.886 1.886 0 0 0-1.122-2.003c-6.876-2.938-13.352-4.428-19.249-4.428m.001-1.248c6.076 0 12.677 1.512 19.738 4.529a3.132 3.132 0 0 1 1.867 3.33c-1.902 13.017-6.868 22.563-14.75 28.384-9.777 7.219-20.518 5.967-21.699 5.8l-19.545-2.055a3.137 3.137 0 0 1-2.4-1.584 3.117 3.117 0 0 1-.097-2.872l8.446-17.746c.23-.531 1.418-3.118 3.864-6.16 2.596-3.226 6.61-6.972 12.409-9.325 3.777-1.534 7.839-2.3 12.167-2.3z" transform="translate(-602.757 -136.842)"/>
                </g>
                <g id="Path_14468-2" data-name="Path 14468" class="cls-6">
                    <path class="cls-9" d="m765.926 235.6 11.461-15.962a31.393 31.393 0 0 0 5.7-21.728c-1.156-9.729-6.995-18.77-17.358-26.863a3.127 3.127 0 0 0-3.816-.029 57.26 57.26 0 0 0-10.072 9.6 34.188 34.188 0 0 0-7.664 17.022 31.411 31.411 0 0 0 5.4 21.805l11.237 16.119a3.129 3.129 0 0 0 5.109.038z" transform="translate(-654.172 -170.385)"/>
                    <path class="cls-10" d="M763.382 235.658c.614 0 1.173-.286 1.53-.783l11.488-15.998c.327-.422 2.03-2.715 3.491-6.39a30.73 30.73 0 0 0 1.785-6.42 28.8 28.8 0 0 0 .177-8.008c-1.115-9.39-6.797-18.147-16.888-26.028a1.89 1.89 0 0 0-1.159-.399 1.86 1.86 0 0 0-1.134.381c-3.926 2.98-7.241 6.139-9.854 9.387-4.15 5.156-6.639 10.675-7.4 16.404-1.532 11.537 4.471 19.97 5.161 20.894l.024.033 11.239 16.122c.347.5.918.801 1.528.805h.012m0 1.248h-.02a3.117 3.117 0 0 1-2.545-1.342l-11.237-16.12c-.718-.96-6.999-9.757-5.398-21.804.794-5.98 3.361-11.676 7.664-17.022 2.686-3.34 6.045-6.54 10.072-9.598a3.127 3.127 0 0 1 3.816.029c10.363 8.093 16.202 17.134 17.358 26.863 1.431 12.073-4.975 20.784-5.705 21.728l-11.461 15.962a3.12 3.12 0 0 1-2.544 1.304z" transform="translate(-654.172 -170.385)"/>
                </g>
                <g id="Path_14469-2" data-name="Path 14469" class="cls-6">
                    <path class="cls-9" d="m766.984 234.076 13.132-14.621a3.129 3.129 0 0 0-1.13-4.981l-18.159-7.517a31.379 31.379 0 0 0-22.455-.6A34.211 34.211 0 0 0 723.39 217.5a57.137 57.137 0 0 0-7.213 11.893 3.128 3.128 0 0 0 .845 3.723c10.129 8.388 20.211 12.153 29.962 11.192a31.418 31.418 0 0 0 20-10.232z" transform="translate(-715.888 -95.151)"/>
                    <path class="cls-10" d="M743.998 243.203a28.802 28.802 0 0 0 10.646-2.03 30.743 30.743 0 0 0 5.888-3.12c3.266-2.208 5.152-4.369 5.496-4.78l.028-.03 13.132-14.622a1.86 1.86 0 0 0 .435-1.674 1.879 1.879 0 0 0-1.114-1.321l-18.2-7.535c-.512-.234-5.181-2.284-11.604-2.284-3.418 0-6.752.58-9.907 1.726-5.431 1.972-10.288 5.587-14.436 10.744-2.616 3.253-4.989 7.167-7.053 11.635a1.884 1.884 0 0 0 .509 2.24c8.856 7.333 17.664 11.051 26.18 11.051m0 1.248c-8.817 0-17.877-3.804-26.976-11.339a3.128 3.128 0 0 1-.845-3.723c2.12-4.588 4.53-8.558 7.213-11.894 4.303-5.35 9.313-9.076 14.982-11.134 11.426-4.15 21.37.1 22.455.595l18.159 7.517a3.123 3.123 0 0 1 1.854 2.2c.224.989-.039 2.02-.724 2.782l-13.132 14.62c-.769.916-7.905 9.038-20 10.23-.992.097-1.987.146-2.986.146z" transform="translate(-715.888 -95.151)"/>
                </g>
                <g id="Path_14470-2" data-name="Path 14470" class="cls-6">
                    <path class="cls-9" d="M748.973 288.7c12.3-4.649 20.563-11.541 24.558-20.489a31.42 31.42 0 0 0 1.015-22.442l-6.2-18.648a3.127 3.127 0 0 0-4.889-1.482l-15.52 12.05a28.819 28.819 0 0 0-5.186 5.1A30.87 30.87 0 0 0 736.3 256.9c-1.655 9.659 1.38 19.984 9.018 30.689a3.137 3.137 0 0 0 3.655 1.111z" transform="translate(-671.92 -50.205)"/>
                    <path class="cls-10" d="M747.868 288.9v-1.248c.227 0 .45-.04.664-.121 11.978-4.527 20.006-11.2 23.86-19.831 4.744-10.625 1.382-20.42.984-21.502l-.014-.038-6.2-18.648a1.892 1.892 0 0 0-1.237-1.207 1.886 1.886 0 0 0-1.704.316l-15.555 12.077c-.41.295-2.573 1.917-4.945 4.866a30.792 30.792 0 0 0-3.653 5.725 28.85 28.85 0 0 0-2.54 7.823c-1.597 9.317 1.365 19.328 8.803 29.751.354.494.929.79 1.537.79v1.247m0 0c-.99 0-1.95-.471-2.551-1.31-7.639-10.706-10.674-21.03-9.019-30.69 1.06-6.165 3.855-10.89 6.452-14.118 2.445-3.04 4.715-4.757 5.186-5.096l15.52-12.05a3.13 3.13 0 0 1 2.83-.525 3.137 3.137 0 0 1 2.06 2.007l6.2 18.648c.413 1.12 3.941 11.343-1.015 22.442-3.995 8.948-12.258 15.841-24.558 20.49a3.118 3.118 0 0 1-1.105.202z" transform="translate(-671.92 -50.205)"/>
                </g>
            </g>
        </g>
        <g id="Group_23205" data-name="Group 23205" class="cls-7" transform="translate(-716.416 1493.621)">
            <path id="Path_14471" data-name="Path 14471" class="cls-8" d="M858.775 352.506a1.705 1.705 0 0 0-1.644-1.273c-7.16-.018-12.7 1.888-16.465 5.668a17.1 17.1 0 0 0-4.864 11.22l-.459 10.688a1.7 1.7 0 0 0 2.2 1.7l10.232-3.125a17.111 17.111 0 0 0 9.642-7.522c2.714-4.59 3.171-10.431 1.358-17.356z" transform="translate(11.55 .746)"/>
            <path id="Path_14472" data-name="Path 14472" class="cls-8" d="m825.885 376.389 9.746 4.417a1.7 1.7 0 0 0 2.4-1.406l.92-10.658a17.088 17.088 0 0 0-3.379-11.753c-3.247-4.232-8.495-6.836-15.6-7.739a1.705 1.705 0 0 0-1.794 1.049c-2.689 6.635-2.989 12.486-.889 17.391a16.784 16.784 0 0 0 5.2 6.658 15.7 15.7 0 0 0 3.396 2.041z" transform="translate(4.293)"/>
            <path id="Path_14473" data-name="Path 14473" class="cls-8" d="m839.076 376.591-9.724-4.464a17.1 17.1 0 0 0-12.2-.784c-5.08 1.63-9.3 5.692-12.548 12.073a1.7 1.7 0 0 0 .383 2.044 31.06 31.06 0 0 0 6.177 4.381 18.629 18.629 0 0 0 9.894 2.323 17.108 17.108 0 0 0 11.089-5.155l7.444-7.684a1.7 1.7 0 0 0-.512-2.733z" transform="translate(0 7.965)"/>
            <path id="Path_14474" data-name="Path 14474" class="cls-8" d="m845.006 388.255-5.947-8.893a1.7 1.7 0 0 0-2.78-.073l-6.407 8.568a17.1 17.1 0 0 0-3.332 11.766 18.616 18.616 0 0 0 3.861 9.4 31.1 31.1 0 0 0 5.3 5.4 1.705 1.705 0 0 0 2.078.055c5.786-4.218 9.128-9.029 9.931-14.3a17.092 17.092 0 0 0-2.704-11.923z" transform="translate(8.232 10.968)"/>
            <path id="Path_14475" data-name="Path 14475" class="cls-8" d="M872.051 387c-2.656-6.649-6.491-11.076-11.4-13.159a17.1 17.1 0 0 0-12.225-.324l-10.087 3.564a1.7 1.7 0 0 0-.758 2.677l6.719 8.326a15.691 15.691 0 0 0 2.825 2.77 16.81 16.81 0 0 0 7.752 3.368c5.274.8 10.863-.955 16.61-5.222a1.7 1.7 0 0 0 .564-2z" transform="translate(12.243 8.704)"/>
        </g>
        <g id="Group_23206" data-name="Group 23206" class="cls-7" transform="translate(315.584 1813.764)">
            <path id="Path_14471-2" data-name="Path 14471" class="cls-8" d="M858.775 352.506a1.705 1.705 0 0 0-1.644-1.273c-7.16-.018-12.7 1.888-16.465 5.668a17.1 17.1 0 0 0-4.864 11.22l-.459 10.688a1.7 1.7 0 0 0 2.2 1.7l10.232-3.125a17.111 17.111 0 0 0 9.642-7.522c2.714-4.59 3.171-10.431 1.358-17.356z" transform="translate(11.55 .746)"/>
            <path id="Path_14472-2" data-name="Path 14472" class="cls-8" d="m825.885 376.389 9.746 4.417a1.7 1.7 0 0 0 2.4-1.406l.92-10.658a17.088 17.088 0 0 0-3.379-11.753c-3.247-4.232-8.495-6.836-15.6-7.739a1.705 1.705 0 0 0-1.794 1.049c-2.689 6.635-2.989 12.486-.889 17.391a16.784 16.784 0 0 0 5.2 6.658 15.7 15.7 0 0 0 3.396 2.041z" transform="translate(4.293)"/>
            <path id="Path_14473-2" data-name="Path 14473" class="cls-8" d="m839.076 376.591-9.724-4.464a17.1 17.1 0 0 0-12.2-.784c-5.08 1.63-9.3 5.692-12.548 12.073a1.7 1.7 0 0 0 .383 2.044 31.06 31.06 0 0 0 6.177 4.381 18.629 18.629 0 0 0 9.894 2.323 17.108 17.108 0 0 0 11.089-5.155l7.444-7.684a1.7 1.7 0 0 0-.512-2.733z" transform="translate(0 7.965)"/>
            <path id="Path_14474-2" data-name="Path 14474" class="cls-8" d="m845.006 388.255-5.947-8.893a1.7 1.7 0 0 0-2.78-.073l-6.407 8.568a17.1 17.1 0 0 0-3.332 11.766 18.616 18.616 0 0 0 3.861 9.4 31.1 31.1 0 0 0 5.3 5.4 1.705 1.705 0 0 0 2.078.055c5.786-4.218 9.128-9.029 9.931-14.3a17.092 17.092 0 0 0-2.704-11.923z" transform="translate(8.232 10.968)"/>
            <path id="Path_14475-2" data-name="Path 14475" class="cls-8" d="M872.051 387c-2.656-6.649-6.491-11.076-11.4-13.159a17.1 17.1 0 0 0-12.225-.324l-10.087 3.564a1.7 1.7 0 0 0-.758 2.677l6.719 8.326a15.691 15.691 0 0 0 2.825 2.77 16.81 16.81 0 0 0 7.752 3.368c5.274.8 10.863-.955 16.61-5.222a1.7 1.7 0 0 0 .564-2z" transform="translate(12.243 8.704)"/>
        </g>
    </g>
</svg>
