<svg xmlns="http://www.w3.org/2000/svg" width="1136" height="443" viewBox="0 0 1136 443">
    <defs>
        <style>
            .cls-1{fill:#cb8f61}
        </style>
    </defs>
    <g id="Group_23280" data-name="Group 23280" transform="translate(-139.307 -972.148)">
        <g id="Group_23276" data-name="Group 23276">
            <g id="Group_23265" data-name="Group 23265">
                <g id="Group_23264" data-name="Group 23264">
                    <path id="Path_14499" data-name="Path 14499" class="cls-1" d="M1268.445 995.1h-15.887v-15.9h15.887zm-13.533-2.357h11.18v-11.2h-11.18z"/>
                </g>
            </g>
            <g id="Group_23267" data-name="Group 23267">
                <g id="Group_23266" data-name="Group 23266">
                    <path id="Path_14500" data-name="Path 14500" class="cls-1" d="M162.056 995.1h-15.888v-15.9h15.888zm-13.534-2.357H159.7v-11.2h-11.18z"/>
                </g>
            </g>
            <g id="Group_23269" data-name="Group 23269">
                <g id="Group_23268" data-name="Group 23268">
                    <path id="Path_14501" data-name="Path 14501" class="cls-1" d="M1225.483 1406.9H189.132l-.1-26.3-14.572.195.1-13.969-27.015-.2v-345.96l27.015-.2-.1-13.969 14.573.2.1-26.3h1036.35l.1 26.3 14.575-.194-.1 13.968 27.012.2v345.96l-27.012.195.1 13.969-14.575-.195zm-1034.006-2.357h1031.661l.1-26.334 14.547.195-.1-13.92 27.031-.2v-341.276l-27.031-.2.1-13.92-14.548.194-.1-26.333H191.477l-.1 26.334-14.545-.195.1 13.92-27.034.2v341.279l27.034.2-.1 13.92 14.545-.194z"/>
                </g>
            </g>
            <g id="Group_23271" data-name="Group 23271">
                <g id="Group_23270" data-name="Group 23270">
                    <path id="Path_14502" data-name="Path 14502" class="cls-1" d="M162.055 1408.1h-15.887v-15.909h15.887zm-13.533-2.357H159.7v-11.2h-11.18z"/>
                </g>
            </g>
            <g id="Group_23273" data-name="Group 23273">
                <g id="Group_23272" data-name="Group 23272">
                    <path id="Path_14503" data-name="Path 14503" class="cls-1" d="M1275.306 1415.148h-29.812v-27.5h-11.279v27.5H180.4v-27.5h-11.279v27.5h-29.814v-29.853h27.46v-11.016h-27.46v-361.262h27.461V1002h-27.461v-29.852h29.814v27.495H180.4v-27.495h1053.815v27.5h11.279v-27.5h29.813V1002h-27.459v11.016h27.459v361.261h-27.458v11.023h27.458zm-27.458-2.357h25.1v-25.139h-25.1zm-1065.094 0h1049.107v-27.5h13.633v-13.373h27.459v-356.544h-27.459V1002h-13.632v-27.5H182.754v27.5h-13.633v13.374H141.66v356.547h27.461v13.373h13.633zm-41.094 0h25.107v-25.139H141.66zm1106.188-413.147h25.1v-25.139h-25.1zm-1106.188 0h25.108V974.5H141.66z"/>
                </g>
            </g>
            <g id="Group_23275" data-name="Group 23275">
                <g id="Group_23274" data-name="Group 23274">
                    <path id="Path_14504" data-name="Path 14504" class="cls-1" d="M1268.445 1408.1h-15.887v-15.908h15.887zm-13.534-2.357h11.181v-11.194h-11.181z"/>
                </g>
            </g>
        </g>
        <g id="Group_23279" data-name="Group 23279">
            <g id="Group_23278" data-name="Group 23278">
                <g id="Group_23277" data-name="Group 23277">
                    <path id="Path_14505" data-name="Path 14505" class="cls-1" d="M194.85 1400.163h1024.484l.095-25.807 14.256.191-.1-13.642 26.49-.192v-334.131l-26.49-.192.1-13.641-14.257.19-.095-25.807H194.85l-.1 25.807-14.254-.191.1 13.642-26.493.192v334.131l26.492.192-.1 13.642 14.254-.191z"/>
                </g>
            </g>
        </g>
    </g>
</svg>
