<svg data-name="Group 23230" xmlns="http://www.w3.org/2000/svg" width="48" height="48" viewBox="0 0 48 48">
    <defs>
        <clipPath id="x6iriw5rua">
            <path data-name="Rectangle 3984" style="fill:none" d="M0 0h48v48H0z"/>
        </clipPath>
    </defs>
    <g data-name="Group 23229" style="clip-path:url(#x6iriw5rua)">
        <path data-name="Path 14359" d="M23.986 22.512a6.74 6.74 0 1 0 6.741 6.741 6.741 6.741 0 0 0-6.741-6.741m0 1.5a5.237 5.237 0 1 1-5.238 5.238 5.244 5.244 0 0 1 5.238-5.238" style="fill:#231f20"/>
        <path data-name="Path 14360" d="M23.986 33.45h-.75v-1.5h.75a2.7 2.7 0 0 0 2.693-2.694V28.5h1.5v.752a4.2 4.2 0 0 1-4.2 4.2" style="fill:#231f20"/>
        <path data-name="Path 14361" d="M21.292 30h-1.5v-.75a4.2 4.2 0 0 1 4.2-4.2h.753v1.5h-.753a2.7 2.7 0 0 0-2.693 2.7z" style="fill:#231f20"/>
        <path data-name="Path 14362" d="M23.986 27.738a1.514 1.514 0 1 0 1.514 1.514 1.515 1.515 0 0 0-1.514-1.514m0 1.5a.01.01 0 0 1 .011.011.011.011 0 1 1-.022 0 .01.01 0 0 1 .011-.011" style="fill:#231f20"/>
        <path data-name="Path 14363" d="M38.971 29.128h-6.7v-1.5h5.2V17.112h-3.424l-1.5-1.469H15.3l-1.5 1.469h-3.3v10.513h5.182v1.5H9V15.612h4.18l1.5-1.471h18.48l1.5 1.471h4.31z" style="fill:#2bbaec"/>
        <path data-name="Path 14364" d="M31.488 20.962h-15l-3 16.431h20.865zm-1.263 1.5 2.342 13.428H15.29l2.451-13.425z" style="fill:#231f20"/>
        <path data-name="Rectangle 3983" transform="translate(13.486 20.931)" style="fill:#231f20" d="M0 0h21.001v1.503H0z"/>
    </g>
</svg>
