<svg xmlns="http://www.w3.org/2000/svg" width="368" height="587.858" viewBox="0 0 368 587.858">
    <g data-name="Group 23201" style="opacity:.25">
        <g data-name="Group 23200" style="opacity:.499">
            <g data-name="Group 23199">
                <path data-name="Path 14458" d="M815.087 468.542c-19.614-74.713-111.5-105.351-149.593-112.433a11.648 11.648 0 0 0 1.354-5.373 11.87 11.87 0 0 0-11.835-11.836h-17.546V146.2h-8.607l.064 192.706h-21.612a11.871 11.871 0 0 0-11.838 11.835 11.7 11.7 0 0 0 1.77 6.13c-40.084 8.329-126.793 39.348-145.78 111.671-6.09 23.207 0 49.749 25.034 66.334 16.524 10.946 60.163 19.691 125.729 20.633a11.778 11.778 0 0 0-4.562 9.254A11.871 11.871 0 0 0 609.5 576.6h19.423v43.706a15.38 15.38 0 0 0-4.706 29l-10.158 11.104v73.644h34.207V660.41l-10.159-11.11a15.315 15.315 0 0 0-.64-27.752V576.6h19.738a11.871 11.871 0 0 0 11.835-11.838 11.781 11.781 0 0 0-4.565-9.254c65.486-.952 109.068-9.7 125.582-20.633 25.03-16.584 31.123-43.126 25.03-66.333zm-212.8 86.916c-50.628-1.163-84.356-9.8-97.25-20.583-19.835-16.584-24.662-43.127-19.835-66.334 14.567-70.017 79.61-101.322 112.624-110.811a11.567 11.567 0 0 0 1.435 1.619c-34.231 11.151-93.529 42.738-107.355 109.193-4.826 23.207 0 49.749 19.835 66.334 12.338 10.31 43.76 18.662 90.788 20.385-.084.06-.158.133-.242.197zm.747-.58c-28.51-2.343-47.645-10.3-55.43-20-13.31-16.584-16.551-43.127-13.31-66.334 8.587-61.521 48.405-92.9 71.338-106.142a11.537 11.537 0 0 0 1.679.171h4.729c-22.979 13.34-62.493 44.715-71.043 105.971-3.241 23.207 0 49.749 13.31 66.334 7.256 9.039 24.377 16.567 49.749 19.45-.344.178-.696.339-1.021.55zm-7.4-22.078c3.452 8.168 11.131 16.129 22.43 20.127h-6.7c-11.3-4-18.978-11.959-22.43-20.127-7.015-16.581-8.721-43.123-7.015-66.33 4.444-60.418 25.047-90.871 37.395-103.9h6.71c-12.347 13.018-32.954 43.458-37.4 103.9-1.711 23.207-.005 49.749 7.01 66.33zm59.556 20.127H651c11.3-4 18.974-11.959 22.43-20.127 7.012-16.581 8.718-43.123 7.012-66.33-4.444-60.441-25.054-90.881-37.4-103.9h4.193c12.348 13.028 32.951 43.482 37.395 103.9 1.706 23.207 0 49.749-7.012 66.33-3.45 8.169-11.129 16.129-22.427 20.127zm7.431 1.381c25.3-2.893 42.379-10.407 49.625-19.433 13.306-16.584 16.547-43.127 13.306-66.334-8.552-61.255-48.062-92.63-71.042-105.97h.5a11.775 11.775 0 0 0 4.588-.928c22.694 12.787 63.9 44.2 72.655 106.9 3.241 23.207 0 49.749-13.306 66.334-7.776 9.686-26.864 17.637-55.3 19.993-.325-.213-.677-.381-1.026-.562zm98.892-19.433c-12.881 10.766-46.555 19.4-97.1 20.579-.084-.064-.158-.137-.241-.2 46.947-1.733 78.316-10.079 90.64-20.378 19.835-16.584 24.665-43.127 19.835-66.334-14.277-68.616-77.047-100.069-110.628-110.231a11.732 11.732 0 0 0 1.123-1.559c31.633 8.165 101.091 39.134 116.207 111.789 4.83 23.208 0 49.75-19.835 66.334z" transform="translate(-449.276 -146.195)" style="fill:#400000"/>
            </g>
        </g>
    </g>
</svg>
