<svg xmlns="http://www.w3.org/2000/svg" width="176" height="66" viewBox="0 0 176 66">
    <defs>
        <style>
            .cls-1{fill:#fff}.cls-2{fill:#94541b}
        </style>
    </defs>
    <g id="Group_23184" data-name="Group 23184" transform="translate(-17.15 -16.806)">
        <g id="Group_23082" data-name="Group 23082" transform="translate(27.2 57.195)">
            <g id="Group_23081" data-name="Group 23081">
                <g id="Group_23080" data-name="Group 23080">
                    <path id="Path_14350" data-name="Path 14350" class="cls-1" d="M62.592 56.822h-2.781v6.515h-2.172v-6.515h-2.782v-1.936h7.735z" transform="translate(-24.017 -54.041)"/>
                    <path id="Path_14351" data-name="Path 14351" class="cls-1" d="M68.47 56.916a2.347 2.347 0 0 1 .956.9 2.632 2.632 0 0 1 .34 1.356v4.19h-2.088v-3.71a1.172 1.172 0 0 0-.323-.891 1.272 1.272 0 0 0-.91-.306 1.429 1.429 0 0 0-.962.311 1.084 1.084 0 0 0-.364.875v3.721h-2.09v-8.823h2.09V57.3a2.2 2.2 0 0 1 .869-.535 3.339 3.339 0 0 1 1.068-.169 3.007 3.007 0 0 1 1.414.32z" transform="translate(-23.327 -54.071)"/>
                    <path id="Path_14352" data-name="Path 14352" class="cls-1" d="M77.407 60.588h-5.095a1.49 1.49 0 0 0 .669.8 2.367 2.367 0 0 0 1.209.282 2.577 2.577 0 0 0 .892-.146 3.56 3.56 0 0 0 .869-.5l1.068 1.326a3.237 3.237 0 0 1-1.157.728 4.651 4.651 0 0 1-1.7.281 4.5 4.5 0 0 1-2.1-.457 3.237 3.237 0 0 1-1.338-1.245 3.416 3.416 0 0 1-.458-1.749 3.53 3.53 0 0 1 .435-1.731 3.249 3.249 0 0 1 1.256-1.268 3.776 3.776 0 0 1 1.925-.475 3.714 3.714 0 0 1 1.913.475 3.2 3.2 0 0 1 1.238 1.285 3.763 3.763 0 0 1 .428 1.784 2.888 2.888 0 0 1-.054.61zm-4.525-2.154a1.441 1.441 0 0 0-.58.781h3.146a1.423 1.423 0 0 0-.552-.781 1.713 1.713 0 0 0-1-.277 1.8 1.8 0 0 0-1.015.278z" transform="translate(-22.716 -53.911)"/>
                    <path id="Path_14353" data-name="Path 14353" class="cls-1" d="M82.575 56.557v1.914a4 4 0 0 0-.681-.059 2.222 2.222 0 0 0-1.314.351 1.431 1.431 0 0 0-.493 1.245V63.2H78v-6.62h1.973v.892a1.7 1.7 0 0 1 .827-.745 2.884 2.884 0 0 1 1.179-.242 2.29 2.29 0 0 1 .596.072z" transform="translate(-22.063 -53.906)"/>
                    <path id="Path_14354" data-name="Path 14354" class="cls-1" d="M89.973 60.588h-5.094a1.485 1.485 0 0 0 .669.8 2.361 2.361 0 0 0 1.209.282 2.57 2.57 0 0 0 .891-.146 3.54 3.54 0 0 0 .869-.5l1.068 1.326a3.231 3.231 0 0 1-1.156.728 4.659 4.659 0 0 1-1.7.281 4.509 4.509 0 0 1-2.1-.457 3.237 3.237 0 0 1-1.338-1.245 3.415 3.415 0 0 1-.457-1.749 3.541 3.541 0 0 1 .434-1.731 3.257 3.257 0 0 1 1.256-1.268 3.779 3.779 0 0 1 1.925-.475 3.718 3.718 0 0 1 1.914.475 3.2 3.2 0 0 1 1.237 1.285 3.763 3.763 0 0 1 .428 1.784 2.888 2.888 0 0 1-.055.61zm-4.524-2.154a1.437 1.437 0 0 0-.581.781h3.146a1.418 1.418 0 0 0-.552-.781 1.71 1.71 0 0 0-1-.277 1.794 1.794 0 0 0-1.014.278z" transform="translate(-21.655 -53.911)"/>
                    <path id="Path_14355" data-name="Path 14355" class="cls-1" d="M90.484 54.886h2.183l-.9 3.874H90.4z" transform="translate(-21.016 -54.041)"/>
                    <path id="Path_14356" data-name="Path 14356" class="cls-1" d="M95.219 61.533a4.122 4.122 0 0 0 1.3.218 1.827 1.827 0 0 0 .839-.153q.288-.153.288-.364 0-.257-.458-.341l-1.585-.246a3.057 3.057 0 0 1-1.678-.7 1.743 1.743 0 0 1-.552-1.314 1.874 1.874 0 0 1 .821-1.6 3.792 3.792 0 0 1 2.253-.592 6.882 6.882 0 0 1 1.62.2 4.62 4.62 0 0 1 1.5.658l-.939 1.4a4.2 4.2 0 0 0-1-.464 3.678 3.678 0 0 0-1.144-.194 2.117 2.117 0 0 0-.781.129c-.215.087-.322.2-.322.33q0 .257.7.363l1.4.2a2.907 2.907 0 0 1 1.644.681 1.762 1.762 0 0 1 .528 1.314 2.027 2.027 0 0 1-.382 1.226 2.429 2.429 0 0 1-1.08.8 4.365 4.365 0 0 1-1.637.281 7.114 7.114 0 0 1-1.9-.264 4.123 4.123 0 0 1-1.531-.734l.95-1.408a3.906 3.906 0 0 0 1.146.574z" transform="translate(-20.786 -53.911)"/>
                    <path id="Path_14357" data-name="Path 14357" class="cls-1" d="M113.763 63.337h-2.1V57.55l-2.359 5.7h-1.434l-2.336-5.528v5.611h-2.1v-8.447h2.911l2.3 5.47 2.208-5.47h2.911z" transform="translate(-19.916 -54.041)"/>
                    <path id="Path_14358" data-name="Path 14358" class="cls-1" d="M121.449 61.6v1.526a1.807 1.807 0 0 1-.775.129 2.3 2.3 0 0 1-1-.2 1.421 1.421 0 0 1-.652-.617 2.193 2.193 0 0 1-.992.7 3.822 3.822 0 0 1-1.308.218 3.3 3.3 0 0 1-1.925-.529 1.73 1.73 0 0 1-.763-1.514 1.869 1.869 0 0 1 .881-1.636 4.474 4.474 0 0 1 2.512-.593h1.338a.96.96 0 0 0-.411-.693 1.632 1.632 0 0 0-.951-.246 3.487 3.487 0 0 0-.938.141 3.337 3.337 0 0 0-1.01.492l-.963-1.478a4.326 4.326 0 0 1 1.433-.652 6.348 6.348 0 0 1 1.584-.2 3.542 3.542 0 0 1 2.372.721 2.52 2.52 0 0 1 .845 2.025v2.007a.41.41 0 0 0 .134.335.494.494 0 0 0 .323.112 1.157 1.157 0 0 0 .266-.048zm-3.311-.136a1.354 1.354 0 0 0 .611-1h-1.256a2.033 2.033 0 0 0-1.092.211.609.609 0 0 0-.3.5.545.545 0 0 0 .229.44 1.068 1.068 0 0 0 .67.185 2.045 2.045 0 0 0 1.138-.338z" transform="translate(-19.021 -53.911)"/>
                    <path id="Path_14359" data-name="Path 14359" class="cls-1" d="M128.657 56.586v5.927a2.6 2.6 0 0 1-.476 1.555 2.981 2.981 0 0 1-1.344 1.016 5.36 5.36 0 0 1-2.019.351 7.314 7.314 0 0 1-1.525-.158 7.7 7.7 0 0 1-1.4-.428l.657-1.62a5.8 5.8 0 0 0 1.149.376 5.38 5.38 0 0 0 1.127.129 2.267 2.267 0 0 0 1.274-.311.993.993 0 0 0 .463-.874v-.505a2.328 2.328 0 0 1-1.889.717 3.564 3.564 0 0 1-1.744-.411 2.911 2.911 0 0 1-1.15-1.121 3.151 3.151 0 0 1-.406-1.591 3.271 3.271 0 0 1 .406-1.619 2.988 2.988 0 0 1 1.15-1.156 3.41 3.41 0 0 1 1.732-.428 2.522 2.522 0 0 1 2.019.845v-.693zm-2.494 4.061a1.41 1.41 0 0 0 0-2.025 1.581 1.581 0 0 0-1.109-.394 1.619 1.619 0 0 0-1.12.394 1.383 1.383 0 0 0 .005 2.031 1.628 1.628 0 0 0 1.115.393 1.56 1.56 0 0 0 1.108-.399z" transform="translate(-18.401 -53.911)"/>
                    <path id="Path_14360" data-name="Path 14360" class="cls-1" d="M131.413 55.984a1.3 1.3 0 0 1-1.679 0 1.092 1.092 0 0 1 0-1.572 1.308 1.308 0 0 1 1.679 0 1.09 1.09 0 0 1 0 1.572zm-1.884.8h2.089V63.4h-2.089z" transform="translate(-17.724 -54.107)"/>
                    <path id="Path_14361" data-name="Path 14361" class="cls-1" d="M134.382 62.9a3.252 3.252 0 0 1-1.333-1.239 3.5 3.5 0 0 1 .024-3.5 3.416 3.416 0 0 1 1.356-1.261 4.233 4.233 0 0 1 2.013-.463 4.166 4.166 0 0 1 1.637.3 3.244 3.244 0 0 1 1.145.769l-1.209 1.478a2.44 2.44 0 0 0-.716-.5 2.035 2.035 0 0 0-.846-.182 1.985 1.985 0 0 0-.85.189 1.56 1.56 0 0 0-.652.552 1.614 1.614 0 0 0 0 1.713 1.565 1.565 0 0 0 .652.551 2.038 2.038 0 0 0 .874.189 2.424 2.424 0 0 0 .839-.153 2 2 0 0 0 .733-.47l1.2 1.467a3.308 3.308 0 0 1-1.144.74 4.952 4.952 0 0 1-3.721-.176z" transform="translate(-17.454 -53.911)"/>
                    <path id="Path_14362" data-name="Path 14362" class="cls-1" d="m39.8 67.874-2.746 8.451h-2.607l-1.35-5.2-1.338 5.2h-2.606l-2.735-8.451h2.324l1.773 6.256 1.526-6.221h2.207l1.514 6.186 1.8-6.22z" transform="translate(-26.418 -52.945)"/>
                    <path id="Path_14363" data-name="Path 14363" class="cls-1" d="M45.041 69.9a2.356 2.356 0 0 1 .958.9 2.635 2.635 0 0 1 .341 1.356v4.19h-2.09v-3.701a1.169 1.169 0 0 0-.323-.892 1.27 1.27 0 0 0-.91-.3 1.423 1.423 0 0 0-.962.311 1.087 1.087 0 0 0-.364.874v3.721H39.6v-8.832h2.089v2.759a2.211 2.211 0 0 1 .869-.534 3.31 3.31 0 0 1 1.068-.17 3.007 3.007 0 0 1 1.415.318z" transform="translate(-25.305 -52.974)"/>
                    <path id="Path_14364" data-name="Path 14364" class="cls-1" d="M53.979 73.578h-5.094a1.489 1.489 0 0 0 .668.8 2.357 2.357 0 0 0 1.21.282 2.575 2.575 0 0 0 .891-.146 3.505 3.505 0 0 0 .869-.5l1.068 1.326a3.226 3.226 0 0 1-1.156.728 4.658 4.658 0 0 1-1.7.282 4.509 4.509 0 0 1-2.1-.458 3.231 3.231 0 0 1-1.335-1.247 3.415 3.415 0 0 1-.458-1.748 3.543 3.543 0 0 1 .435-1.732 3.257 3.257 0 0 1 1.256-1.265 3.779 3.779 0 0 1 1.925-.475 3.721 3.721 0 0 1 1.914.475 3.2 3.2 0 0 1 1.237 1.285 3.764 3.764 0 0 1 .428 1.785 2.9 2.9 0 0 1-.058.608zm-4.524-2.155a1.437 1.437 0 0 0-.581.781h3.146a1.418 1.418 0 0 0-.552-.781 1.72 1.72 0 0 0-1-.275 1.8 1.8 0 0 0-1.014.275z" transform="translate(-24.694 -52.814)"/>
                    <path id="Path_14365" data-name="Path 14365" class="cls-1" d="M60.011 69.744a2.347 2.347 0 0 1 .956.9A2.635 2.635 0 0 1 61.308 72v4.19h-2.09v-3.704a1.173 1.173 0 0 0-.322-.892 1.271 1.271 0 0 0-.91-.3 1.423 1.423 0 0 0-.962.311 1.087 1.087 0 0 0-.364.874V76.2h-2.09v-6.625h1.973v.68a2.112 2.112 0 0 1 .9-.633 3.269 3.269 0 0 1 1.156-.2 3.007 3.007 0 0 1 1.412.322z" transform="translate(-24.041 -52.814)"/>
                    <path id="Path_14366" data-name="Path 14366" class="cls-1" d="m78.115 67.874-2.747 8.451h-2.606l-1.35-5.2-1.338 5.2h-2.606l-2.734-8.451h2.324l1.772 6.256 1.526-6.221h2.207l1.514 6.186 1.8-6.22z" transform="translate(-23.183 -52.945)"/>
                    <path id="Path_14367" data-name="Path 14367" class="cls-1" d="M84.675 73.578h-5.094a1.485 1.485 0 0 0 .668.8 2.356 2.356 0 0 0 1.209.282 2.576 2.576 0 0 0 .892-.146 3.524 3.524 0 0 0 .869-.5l1.068 1.326a3.222 3.222 0 0 1-1.157.728 4.65 4.65 0 0 1-1.7.282 4.5 4.5 0 0 1-2.1-.458A3.23 3.23 0 0 1 78 74.645a3.415 3.415 0 0 1-.458-1.748 3.543 3.543 0 0 1 .435-1.732 3.25 3.25 0 0 1 1.252-1.265 3.776 3.776 0 0 1 1.925-.475 3.714 3.714 0 0 1 1.913.475 3.2 3.2 0 0 1 1.233 1.282 3.764 3.764 0 0 1 .428 1.785 2.9 2.9 0 0 1-.053.611zm-4.525-2.155a1.441 1.441 0 0 0-.58.781h3.146a1.423 1.423 0 0 0-.552-.781 1.721 1.721 0 0 0-1-.275 1.8 1.8 0 0 0-1.015.275z" transform="translate(-22.102 -52.814)"/>
                    <path id="Path_14368" data-name="Path 14368" class="cls-1" d="M95.939 76.325h-7.372v-8.451h7.254l-.246 1.866h-4.848v1.326h3.345v1.89h-3.345v1.5h4.965z" transform="translate(-21.171 -52.945)"/>
                    <path id="Path_14369" data-name="Path 14369" class="cls-1" d="M103.28 74.586v1.526a1.8 1.8 0 0 1-.774.13 2.3 2.3 0 0 1-1-.206 1.419 1.419 0 0 1-.652-.616 2.207 2.207 0 0 1-.992.7 3.859 3.859 0 0 1-1.309.217 3.311 3.311 0 0 1-1.925-.528 1.73 1.73 0 0 1-.762-1.514 1.87 1.87 0 0 1 .879-1.637 4.487 4.487 0 0 1 2.513-.593h1.338a.963.963 0 0 0-.411-.693 1.635 1.635 0 0 0-.951-.246 3.532 3.532 0 0 0-.939.141 3.354 3.354 0 0 0-1.01.493l-.962-1.479a4.332 4.332 0 0 1 1.431-.652 6.356 6.356 0 0 1 1.585-.2 3.543 3.543 0 0 1 2.371.721 2.518 2.518 0 0 1 .845 2.026v2.006a.411.411 0 0 0 .136.335.485.485 0 0 0 .322.112 1.089 1.089 0 0 0 .267-.043zm-3.31-.134a1.361 1.361 0 0 0 .611-1h-1.255a2.027 2.027 0 0 0-1.092.211.607.607 0 0 0-.3.505.544.544 0 0 0 .229.439 1.058 1.058 0 0 0 .675.182 2.054 2.054 0 0 0 1.133-.337z" transform="translate(-20.555 -52.814)"/>
                    <path id="Path_14370" data-name="Path 14370" class="cls-1" d="M108.138 74.391v1.82a3.233 3.233 0 0 1-1.28.223 2.887 2.887 0 0 1-2.078-.669 2.505 2.505 0 0 1-.692-1.89v-2.406h-1.115v-1.737h1.139v-1.2l2.065-.975v2.172h1.9v1.737h-1.9v2.242q0 .844 1.022.845a2.943 2.943 0 0 0 .939-.162z" transform="translate(-19.955 -52.971)"/>
                    <path id="Path_14371" data-name="Path 14371" class="cls-1" d="M119.335 69.811h-2.782v6.514h-2.172v-6.514H111.6v-1.937h7.735z" transform="translate(-19.226 -52.945)"/>
                    <path id="Path_14372" data-name="Path 14372" class="cls-1" d="M121.16 75.883a3.4 3.4 0 0 1 0-6 4.405 4.405 0 0 1 3.932 0 3.4 3.4 0 0 1 0 6 4.4 4.4 0 0 1-3.932 0zm3.127-1.854a1.629 1.629 0 0 0 0-2.288 1.75 1.75 0 0 0-2.324 0 1.631 1.631 0 0 0 0 2.288 1.753 1.753 0 0 0 2.324 0z" transform="translate(-18.569 -52.814)"/>
                    <path id="Path_14373" data-name="Path 14373" class="cls-1" d="M134.28 69.575V75.5a2.6 2.6 0 0 1-.475 1.555 2.984 2.984 0 0 1-1.345 1.016 5.36 5.36 0 0 1-2.019.352 7.315 7.315 0 0 1-1.525-.159 7.7 7.7 0 0 1-1.4-.428l.657-1.619a5.8 5.8 0 0 0 1.149.375 5.38 5.38 0 0 0 1.127.129 2.266 2.266 0 0 0 1.274-.311.993.993 0 0 0 .463-.874v-.505a2.323 2.323 0 0 1-1.889.717 3.564 3.564 0 0 1-1.744-.411 2.9 2.9 0 0 1-1.149-1.121 3.15 3.15 0 0 1-.406-1.59 3.275 3.275 0 0 1 .406-1.62 3 3 0 0 1 1.149-1.156 3.41 3.41 0 0 1 1.732-.428 2.525 2.525 0 0 1 2.019.845v-.692zm-2.494 4.061a1.41 1.41 0 0 0 0-2.025 1.574 1.574 0 0 0-1.109-.394 1.619 1.619 0 0 0-1.121.394 1.383 1.383 0 0 0 .007 2.03 1.622 1.622 0 0 0 1.115.393 1.562 1.562 0 0 0 1.107-.398z" transform="translate(-17.926 -52.814)"/>
                    <path id="Path_14374" data-name="Path 14374" class="cls-1" d="M141.878 73.578h-5.094a1.485 1.485 0 0 0 .668.8 2.356 2.356 0 0 0 1.209.282 2.576 2.576 0 0 0 .892-.146 3.525 3.525 0 0 0 .869-.5l1.068 1.326a3.226 3.226 0 0 1-1.156.728 4.658 4.658 0 0 1-1.7.282 4.509 4.509 0 0 1-2.1-.458 3.231 3.231 0 0 1-1.338-1.245 3.415 3.415 0 0 1-.458-1.748 3.543 3.543 0 0 1 .435-1.732 3.25 3.25 0 0 1 1.256-1.268 3.779 3.779 0 0 1 1.925-.475 3.714 3.714 0 0 1 1.913.475 3.2 3.2 0 0 1 1.238 1.285 3.764 3.764 0 0 1 .428 1.785 2.9 2.9 0 0 1-.055.609zm-4.524-2.155a1.437 1.437 0 0 0-.581.781h3.146a1.418 1.418 0 0 0-.552-.781 1.72 1.72 0 0 0-1-.275 1.8 1.8 0 0 0-1.014.275z" transform="translate(-17.273 -52.814)"/>
                    <path id="Path_14375" data-name="Path 14375" class="cls-1" d="M146.984 74.391v1.82a3.233 3.233 0 0 1-1.28.223 2.887 2.887 0 0 1-2.078-.669 2.509 2.509 0 0 1-.692-1.89v-2.406h-1.114v-1.737h1.139v-1.2l2.066-.975v2.172h1.9v1.737h-1.9v2.242q0 .844 1.02.845a2.943 2.943 0 0 0 .939-.162z" transform="translate(-16.675 -52.971)"/>
                    <path id="Path_14376" data-name="Path 14376" class="cls-1" d="M153.147 69.9a2.347 2.347 0 0 1 .956.9 2.625 2.625 0 0 1 .342 1.356v4.19h-2.09v-3.701a1.169 1.169 0 0 0-.323-.892 1.27 1.27 0 0 0-.91-.3 1.423 1.423 0 0 0-.962.311 1.087 1.087 0 0 0-.364.874v3.721h-2.089v-8.832h2.093v2.759a2.211 2.211 0 0 1 .869-.534 3.31 3.31 0 0 1 1.068-.17 3.007 3.007 0 0 1 1.41.318z" transform="translate(-16.178 -52.974)"/>
                    <path id="Path_14377" data-name="Path 14377" class="cls-1" d="M162.085 73.578h-5.094a1.487 1.487 0 0 0 .669.8 2.353 2.353 0 0 0 1.209.282 2.57 2.57 0 0 0 .891-.146 3.51 3.51 0 0 0 .87-.5l1.067 1.326a3.217 3.217 0 0 1-1.156.728 4.654 4.654 0 0 1-1.7.282 4.5 4.5 0 0 1-2.1-.458 3.224 3.224 0 0 1-1.338-1.245 3.4 3.4 0 0 1-.458-1.748 3.542 3.542 0 0 1 .434-1.732 3.257 3.257 0 0 1 1.256-1.268 3.778 3.778 0 0 1 1.925-.475 3.716 3.716 0 0 1 1.914.475 3.214 3.214 0 0 1 1.238 1.285 3.764 3.764 0 0 1 .428 1.785 2.829 2.829 0 0 1-.055.609zm-4.524-2.155a1.443 1.443 0 0 0-.581.781h3.146a1.412 1.412 0 0 0-.552-.781 1.717 1.717 0 0 0-1-.275 1.8 1.8 0 0 0-1.014.275z" transform="translate(-15.567 -52.814)"/>
                    <path id="Path_14378" data-name="Path 14378" class="cls-1" d="M167.254 69.546v1.913a4 4 0 0 0-.681-.059 2.212 2.212 0 0 0-1.314.352 1.427 1.427 0 0 0-.493 1.248v3.19h-2.089v-6.62h1.971v.891a1.707 1.707 0 0 1 .827-.745 2.892 2.892 0 0 1 1.18-.241 2.3 2.3 0 0 1 .599.071z" transform="translate(-14.914 -52.809)"/>
                </g>
            </g>
        </g>
        <g id="Group_23087" data-name="Group 23087" transform="translate(17.15 16.806)">
            <g id="Group_23085" data-name="Group 23085">
                <rect id="Rectangle_5308" data-name="Rectangle 5308" class="cls-2" width="27.961" height="6.082" rx=".695" transform="rotate(-90 15.567 15.566)"/>
                <g id="Group_23083" data-name="Group 23083" transform="translate(1.629)">
                    <rect id="Rectangle_5309" data-name="Rectangle 5309" class="cls-2" width="2.445" height="2.824" rx=".875" transform="rotate(-90 17.153 17.152)"/>
                    <rect id="Rectangle_5310" data-name="Rectangle 5310" class="cls-2" width="2.445" height="2.824" rx=".875" transform="rotate(-90 1.223 1.222)"/>
                </g>
                <rect id="Rectangle_5311" data-name="Rectangle 5311" class="cls-2" width="27.961" height="6.082" rx=".695" transform="rotate(-90 100.526 -69.393)"/>
                <g id="Group_23084" data-name="Group 23084" transform="translate(171.547)">
                    <rect id="Rectangle_5312" data-name="Rectangle 5312" class="cls-2" width="2.445" height="2.824" rx=".875" transform="rotate(-90 17.153 17.152)"/>
                    <rect id="Rectangle_5313" data-name="Rectangle 5313" class="cls-2" width="2.445" height="2.824" rx=".875" transform="rotate(-90 1.223 1.222)"/>
                </g>
                <path id="Rectangle_5314" data-name="Rectangle 5314" class="cls-2" transform="rotate(-90 18.614 11.155)" d="M0 0h25.233v161.084H0z"/>
            </g>
            <g id="Group_23086" data-name="Group 23086" transform="translate(11.255 10.2)">
                <path id="Path_14379" data-name="Path 14379" class="cls-1" d="M27.528 26.759h14.223v1.794h-1.325v9.061a2.678 2.678 0 0 1-.609 1.934 2.421 2.421 0 0 1-1.809.608h-2.183v-1.794h1a.793.793 0 0 0 .608-.2.97.97 0 0 0 .188-.671v-8.938H27.528zm1.357 10.761v-7.86h7.236v5.614a2.4 2.4 0 0 1-.514 1.716 2.269 2.269 0 0 1-1.685.53zm4.741-6.144h-2.261V35.8h1.591a.712.712 0 0 0 .514-.155.736.736 0 0 0 .156-.531z" transform="translate(-27.528 -26.166)"/>
                <path id="Path_14380" data-name="Path 14380" class="cls-1" d="M45.591 39.423v-12.29h12.476V36.6a3.184 3.184 0 0 1-.607 2.169 2.455 2.455 0 0 1-1.9.655zm9.67-10.5H48.4v8.7h5.817a1.012 1.012 0 0 0 .795-.266 1.4 1.4 0 0 0 .25-.936z" transform="translate(-26.003 -26.134)"/>
                <path id="Path_14381" data-name="Path 14381" class="cls-1" d="M62.044 26.759h14.223v1.794h-1.325v9.061a2.678 2.678 0 0 1-.608 1.934 2.424 2.424 0 0 1-1.809.608h-2.184v-1.794h1a.793.793 0 0 0 .608-.2.97.97 0 0 0 .188-.671v-8.938H62.044zM63.4 37.52v-7.86h7.236v5.614a2.4 2.4 0 0 1-.514 1.716 2.268 2.268 0 0 1-1.684.53zm4.741-6.144h-2.26V35.8h1.591a.717.717 0 0 0 .515-.155.741.741 0 0 0 .155-.531z" transform="translate(-24.614 -26.166)"/>
                <path id="Path_14382" data-name="Path 14382" class="cls-1" d="M81.7 34.694h2.527a7.011 7.011 0 0 1-1.543 3.182 7.721 7.721 0 0 1-3.12 1.809v-1.591a5.946 5.946 0 0 0 1.373-1.42 6.832 6.832 0 0 0 .763-1.98zm1.155-3.353a.835.835 0 0 0 .187.608.861.861 0 0 0 .624.187h1.654v-2.744h2.808v2.744h4.752v1.795h-4.756v3.977a2.656 2.656 0 0 1-.5 1.809 2.091 2.091 0 0 1-1.607.53h-1.9v-1.794h.639a.579.579 0 0 0 .421-.125.641.641 0 0 0 .141-.467v-3.93h-3.2a1.869 1.869 0 0 1-1.4-.468A2.057 2.057 0 0 1 80.279 32v-5.2h7.267a20.035 20.035 0 0 0 2.34-.11q.857-.109 2.4-.452v1.888a15.23 15.23 0 0 1-2.059.374 22.429 22.429 0 0 1-2.277.093h-5.1zm8.39 3.353a7.972 7.972 0 0 0 .733 1.98 5.466 5.466 0 0 0 1.185 1.42v1.591a7.388 7.388 0 0 1-2.964-1.84 7.067 7.067 0 0 1-1.481-3.15z" transform="translate(-23.135 -26.21)"/>
                <path id="Path_14383" data-name="Path 14383" class="cls-1" d="M99.48 35.935v2.542a3.506 3.506 0 0 1-.795 2.4 4.707 4.707 0 0 1-2.355 1.31v-1.106a3.415 3.415 0 0 0 1.2-.92A2.585 2.585 0 0 0 98 38.82h-1.452v-2.885z" transform="translate(-21.719 -25.391)"/>
                <path id="Path_14384" data-name="Path 14384" class="cls-1" d="M103.65 40.12V26.442h13.584v11.043a3.04 3.04 0 0 1-.529 2.043 2.514 2.514 0 0 1-1.9.592zm9.934-4.522a2.366 2.366 0 0 1-.467 1.668 2.257 2.257 0 0 1-1.654.484h-1.544v-1.56h.5a.646.646 0 0 0 .467-.14.665.665 0 0 0 .125-.468v-4.211h-.063a9.141 9.141 0 0 1-1.2 3.805 8.081 8.081 0 0 1-2.9 2.558v-1.715a7.337 7.337 0 0 0 1.654-4.648h-1.654v-1.638h4.164v-1.076h2.573v1.076h1v-1.528h-8.249v10.153h7.408a.864.864 0 0 0 .655-.2.973.973 0 0 0 .187-.67v-6.117h-1z" transform="translate(-21.101 -26.193)"/>
                <path id="Path_14385" data-name="Path 14385" class="cls-1" d="M120.908 40.12V26.442h13.585v11.043a3.033 3.033 0 0 1-.53 2.043 2.513 2.513 0 0 1-1.9.592zm11.151-11.962h-8.686v10.231h7.845a.867.867 0 0 0 .655-.2.976.976 0 0 0 .187-.671zm-4.319 8.485a5.61 5.61 0 0 1-3.915 1.295v-1.233a5.369 5.369 0 0 0 2.246-.858 1.751 1.751 0 0 0 .577-1.42v-.452h2.183v.452a1.732 1.732 0 0 0 .562 1.388 5.39 5.39 0 0 0 2.2.889v1.232a6.188 6.188 0 0 1-3.853-1.294zm-3.76-1.061v-3.337h7.44v3.337h-2.028V33.57h-3.384v2.012zm.437-3.759v-2.979h6.6v1.451a1.727 1.727 0 0 1-.312 1.169 1.344 1.344 0 0 1-1.061.359zm2.028-1.809v.718h2.1a.483.483 0 0 0 .344-.094.614.614 0 0 0 .093-.389v-.234z" transform="translate(-19.644 -26.193)"/>
                <path id="Path_14386" data-name="Path 14386" class="cls-1" d="M137.836 29.894v-1.717h.67v-1.965h2.136v1.965h1.123v-1.965h2.135v1.965h.577v1.717h-.577v2.62a7.608 7.608 0 0 1-1.341 4.725 11.463 11.463 0 0 0 1.809 1.233v1.777a14.337 14.337 0 0 1-3.212-1.654 13.721 13.721 0 0 1-3.15 1.639v-1.763a12.384 12.384 0 0 0 1.794-1.217 7.713 7.713 0 0 1-1.295-4.741v-2.62zm2.806 2.682a6.661 6.661 0 0 0 .562 2.964 6.85 6.85 0 0 0 .562-2.964v-2.682h-1.123zm6.394 5.007V33.87h-2.728v-1.778h2.728V30.6a7.279 7.279 0 0 0 1.841-2.169h-4.1V26.68h7.175v1.746a8.192 8.192 0 0 1-2.231 2.6v1.061h2.48v1.783h-2.48v3.774a2.76 2.76 0 0 1-.53 1.935 2.733 2.733 0 0 1-1.98.561H145.4v-1.716h.732a1.063 1.063 0 0 0 .718-.187.881.881 0 0 0 .186-.655z" transform="translate(-18.215 -26.212)"/>
                <path id="Path_14387" data-name="Path 14387" class="cls-1" d="M155.309 37.177v-1.794h1.791v-4.242a10.884 10.884 0 0 1-1.559.593v-1.622a6.241 6.241 0 0 0 1.591-1.528 7.411 7.411 0 0 0 1-2.372h2.76c-.1.385-.2.708-.281.967h8.265v1.794h-4.148v1.778h3.772v1.793h-3.774v2.839h4.616v1.794h-4.616v3.165h-2.808v-3.165zm4.43-8.2a5.792 5.792 0 0 1-1.9 1.778h4.086v-1.782zm-.063 3.571v2.839h2.246v-2.843z" transform="translate(-16.74 -26.212)"/>
            </g>
        </g>
    </g>
</svg>
