<svg xmlns="http://www.w3.org/2000/svg" width="64" height="64" viewBox="0 0 64 64">
    <defs>
        <style>
            .cls-1{fill:none;stroke:#fff;stroke-linecap:round;stroke-linejoin:round;stroke-width:4px}
        </style>
    </defs>
    <g id="Group_23182" data-name="Group 23182" transform="translate(513 172.637)">
        <g id="Group_23181" data-name="Group 23181">
            <g id="Group_23179" data-name="Group 23179">
                <path id="Path_14440" data-name="Path 14440" class="cls-1" d="M-478.871-154.637v-9.516a5.474 5.474 0 0 0-5.48-5.45h-20.5a5.482 5.482 0 0 0-5.48 5.469v43.283l3.932-1.966 3.933 1.966 3.933-1.966"/>
                <path id="Line_20" data-name="Line 20" class="cls-1" transform="translate(-502.468 -146.006)" d="M10.801 0H0"/>
                <path id="Line_21" data-name="Line 21" class="cls-1" transform="translate(-502.468 -139.244)" d="M4.401 0H0"/>
                <path id="Line_22" data-name="Line 22" class="cls-1" transform="translate(-502.468 -152.888)" d="M15.731 0H0"/>
                <path id="Line_23" data-name="Line 23" class="cls-1" transform="translate(-502.468 -159.771)" d="M9.23 0H0"/>
                <circle id="Ellipse_22" data-name="Ellipse 22" cx="2.212" cy="2.212" r="2.212" transform="translate(-489.218 -161.977)" style="fill:#fff"/>
            </g>
            <g id="Group_23180" data-name="Group 23180">
                <path id="Path_14441" data-name="Path 14441" class="cls-1" d="M-490.995-118v1.96a4.369 4.369 0 0 0 4.37 4.369h30.589a4.369 4.369 0 0 0 4.369-4.369v-19.665a4.369 4.369 0 0 0-4.369-4.369h-2.185a4.37 4.37 0 0 1-4.37-4.37 2.185 2.185 0 0 0-2.185-2.185h-13.11a2.184 2.184 0 0 0-2.184 2.185 4.371 4.371 0 0 1-4.37 4.37h-2.185a4.369 4.369 0 0 0-4.37 4.369v8.4"/>
                <circle id="Ellipse_23" data-name="Ellipse 23" class="cls-1" cx="6.555" cy="6.555" r="6.555" transform="translate(-477.886 -133.52)"/>
            </g>
        </g>
        <path id="Rectangle_5323" data-name="Rectangle 5323" transform="rotate(-180 -224.5 -54.318)" style="fill:none" d="M0 0h64v64H0z"/>
    </g>
</svg>
